<svg xmlns="http://www.w3.org/2000/svg" width="1160" height="1079" version="1.2">
    <style>.s0{fill:#bdbdbd}.s1{fill:#6f6f6f}</style>
    <g id="Frontal">
		<path
			d="M250.6 2.6c-5.3 1.4-11.6 3.8-14 5.2-2.4 1.4-5.7 4.1-7.2 6-1.6 1.8-4.1 6.8-5.6 11-1.9 5.2-2.8 10.9-2.9 17.8-.1 5.6.3 12.3.8 14.9.7 3.8.5 4.8-1 4.8-1 0-2.2.8-2.5 1.9-.4 1-.7 3.6-.7 5.7s1.3 7.4 2.8 11.7c1.5 4.4 3.1 8.3 3.6 8.6.5.4 1.5 1.9 2.3 3.5.9 1.6 2.5 2.7 3.7 2.5 1.9-.2 2.4 1.1 2.9 8.2.5 6.6 1.3 9.1 3.6 11.4 2.8 2.8 2.9 3.6 2.1 13.8-.4 5.9-1.3 12.9-2 15.6-.6 2.6-1.6 4.7-2.1 4.8-.5 0-3.5 2.4-6.7 5.2-3.1 2.9-8 6.8-10.8 8.6-2.8 1.8-5.4 3.6-5.7 4.1-.4.4-3.2 2.1-6.4 3.8-5.2 2.8-7.1 3-24.1 3-18 0-18.6.1-26 3.8-4.3 2.2-11 7.4-15.8 12.2-4.6 4.6-9.1 9.4-10 10.5-.9 1.2-2.5 4.2-3.7 6.9-1.1 2.6-2.7 6.1-3.4 7.8-.9 1.8-1.5 11.3-1.5 24.1 0 11.6.4 25.1.9 30 .8 8.5.7 9.4-3.9 19.7-2.7 5.9-5.5 14.5-6.3 19.1-.8 4.5-1.4 12.4-1.4 17.4-.1 8.7-.4 9.7-4.9 15.9-2.6 3.7-6.6 9.5-8.8 13-2.2 3.5-6.3 11.5-9 17.8-2.7 6.3-6.2 16.9-7.6 23.5-1.4 6.7-3.3 17-4 22.9-.8 5.9-3.2 19.7-5.4 30.5-2.1 10.8-5.8 27.1-8.3 36.2-2.4 9.1-5.6 18.7-7.1 21.4-2.1 3.6-4.7 5.7-10.7 8.5-4.4 2.1-8.2 3.8-8.6 3.8-.3 0-2.8 1.5-5.4 3.4-2.6 1.9-6.1 4.9-7.7 6.7-1.7 1.8-4.2 5.8-5.6 8.9-1.8 4.1-4.4 7.1-9 10.2-4.9 3.3-6.6 5.3-6.9 7.9-.3 2.7.3 3.7 2.5 4.3 1.6.4 5-.2 7.7-1.3 2.6-1.1 5.1-2 5.7-1.9.5.1 1.9-1.5 3.1-3.5 1.3-2 3.4-4 4.8-4.6 1.8-.6 2.8-.3 3.4 1.3.5 1.2 1 3.4 1.1 4.8.1 1.4-2.2 7.1-5 12.7s-7.1 13.6-9.5 17.8c-2.4 4.2-4.9 9.2-5.4 11.1-.9 3-.7 3.7 1.8 4.6 2 .8 3.5.6 5.2-.9 1.3-1.2 3.2-3.8 4.3-5.9 1-2.1 3.7-6.6 5.9-9.9 2.1-3.4 4.2-6.1 4.6-6 .3 0 1.3-1.4 2.2-3.2.9-1.7 2.1-3.2 2.8-3.2.7 0 1.3 1.2 1.3 2.6 0 1.4-1.2 5.8-2.6 9.8-1.5 4-4.4 11.5-6.4 16.5-2 5.1-3.7 10.7-3.7 12.4 0 2.1.8 3.4 2.2 3.6 1.3.2 4-1.5 6.4-4.1 2.3-2.5 4.2-5.3 4.2-6.1-.1-.9.4-1.8.9-1.9.5-.2 2.6-4.4 4.6-9.3 1.9-4.9 4.5-11 5.7-13.6 1.1-2.7 2.5-4.4 3-3.9.5.6.4 3.9-.2 7.4-.7 3.5-1.6 9.2-2.2 12.7-.5 3.5-.9 9.5-1 13.3-.1 6.2.2 7 2.4 7 1.5 0 3.2-1.3 4.1-3.2.8-1.7 3-11.1 5-20.9 1.9-9.8 4-18.4 4.5-19.1.6-.8 1.5-.8 2.6.2 1 .9 2 6.7 2.6 15.3.6 8 1.6 14.4 2.5 15.4.9.9 2.1 1.6 2.6 1.6.5-.1 1.3-1.1 1.7-2.3.4-1.2 1.2-8.5 1.8-16.2.7-7.7 2.9-21.1 5.1-29.9 2.1-8.7 4.5-17.9 5.3-20.3.8-2.4 1.7-11.3 1.9-19.7.2-8.4 1-17.5 1.8-20.3.7-2.8 3.2-9.1 5.4-14 2.1-4.9 8.9-18.6 14.9-30.5 6-11.9 12-23.6 13.3-26 1.3-2.5 2.4-4.8 2.4-5.1.1-.4 1.9-3.8 4.2-7.6 2.2-3.9 4.1-8 4.1-9.3 0-1.2.6-3.2 1.3-4.4.6-1.2 2.4-6.2 3.8-11.1 1.4-4.9 3.2-15.5 4-23.5.9-10.1 2.1-16 3.8-19.1 1.4-2.4 3.9-6.4 5.6-8.9 1.8-2.4 4.8-8.7 6.8-14 2-5.2 4.2-12.3 5-15.8.9-3.9 2.3-6.8 3.7-7.4 1.2-.5 2.5-.6 2.9-.1.3.4 1.3 6.3 2.2 13 .9 6.7 2.3 14.5 3.1 17.3.8 2.8 2.8 7.4 4.3 10.2 1.6 2.8 3.3 7.6 3.8 10.8.6 3.1.9 12.3.7 20.3-.1 8.1-1.4 28.4-2.8 45.1-1.4 16.8-3.4 33.4-4.5 36.9s-2.7 8-3.7 10.1c-.9 2.1-3.1 11-5 19.7-1.8 8.8-4.2 22.5-5.2 30.5-1 8.1-2.7 22.6-3.8 32.4-1.7 14.2-1.9 24.7-1.3 51.5.5 18.5 1.4 40.1 2.1 48 .6 7.8 2.3 19.8 3.6 26.6 1.3 6.8 3.6 15.6 5 19.4 1.4 3.9 3.3 7.7 4.2 8.5 1.1.9 1.8 5 2 10.8.2 5.1-.5 15-1.6 22-1 7-1.8 16.4-1.8 21 .1 4.5.6 11.1 1 14.6.5 3.5.5 8.6-.1 11.4-.6 2.8-1.3 6.5-1.6 8.3-.3 1.7-1.1 5.7-1.8 8.9-.8 3.1-1.7 15.7-2.1 27.9-.4 12.5-.2 28.7.6 36.9.7 8 1.6 17.4 2 20.9.3 3.5 1 9 1.4 12.1.4 3.2 1.8 10.3 3.1 15.9s3.5 15.3 5 21.6c1.4 6.3 3.2 16.4 3.9 22.5.7 6.2.9 11.9.4 12.7-.5.9-.9 14.1-1 29.3l-.1 27.6c-13.3 12.8-18.2 18.7-19.5 21.3-1.3 2.6-2.6 6.3-2.9 8.1-.3 2.6.7 4.5 4.3 8 2.7 2.5 5.9 4.5 7.3 4.5 1.4 0 3.4.9 4.5 1.9 1.2 1.3 3.3 1.7 5.7 1.3 2.4-.4 4.2 0 4.8 1.1.5.9 1.9 2 3.1 2.5 1.3.5 4 0 6.1-1 2.1-1.1 3.8-1.5 3.8-1-.1.5 1.4 1.7 3.1 2.5 1.8.9 4.2 1.6 5.5 1.6 1.2 0 3.1-1 4.1-2.2 1.1-1.2 3.6-4.5 5.7-7.3 3.5-4.8 3.6-5.6 2.8-13.3-.5-5.3-.2-11.5 1-17.2.9-4.9 2-15.7 2.4-24.1.6-12.5.3-16.3-1.4-21-1.7-4.7-2.1-10.4-2.1-31.8.1-14.3.8-31.7 1.7-38.7.9-7 1.6-13.7 1.5-14.9-.1-1.3.4-2.6 1.1-2.9.7-.4 1-1.2.6-1.9-.3-.7.2-2.9 1.2-4.8.9-1.9 2.2-5.5 2.7-7.9.5-2.5 1.6-5 2.4-5.7.8-.7 1.9-5.6 2.5-10.8.5-5.3.9-17.1.9-26.4-.1-9.3-1-23.3-2-31.1-1.1-7.9-2.6-19.8-3.4-26.4-1.3-11.3-1.2-12.4 1.3-17.1 1.5-2.8 3.1-7.1 3.6-9.6.5-2.4.9-13.9 1-25.4.1-18.1.6-22.9 3.5-34.9 1.9-7.7 5.4-22.6 7.9-33.1 2.5-10.4 5.2-21.9 6-25.4.8-3.5 2.5-10.6 3.8-15.9 1.4-5.2 3.1-18.4 3.9-29.2 1-13.2 1.1-22.8.3-29-.7-5.1-.8-9.6-.3-9.8.5-.3 1.8 0 2.9.7 1 .7 2.9 1 4.1.8 1.2-.3 3.1-.9 4.1-1.3 1.7-.7 1.9 1.6 1.5 16.7-.2 9.6.3 22.9 1.1 29.5.8 6.7 2.6 17.3 4 23.5 1.3 6.3 3.9 17.2 5.7 24.2 1.8 7 3.5 14.1 3.8 15.9.3 1.7 1.4 5.6 2.4 8.5 1 3 1.8 6.4 1.8 7.7 0 1.2 1.5 7.9 3.3 14.9 2.9 11 3.4 15.8 3.7 34.9.1 12.3.7 24.3 1.1 26.7.5 2.5 2.1 6.8 3.5 9.6 2.1 3.9 2.5 6.5 2 11.4-.3 3.5-1.5 12.9-2.7 21-1.1 8-2.6 22-3.2 31.1-.7 10-.6 21.5.1 29.2.7 7 2.3 15.9 3.5 19.7 1.3 3.8 3.4 10.1 4.6 14 1.2 3.8 2.4 7.8 2.6 8.9.2 1 1 8.5 1.8 16.5s1.9 21.2 2.4 29.2.4 18.1-.2 22.2c-.6 4.2-1.8 11.4-2.8 15.9-1.1 5.5-1.5 13.2-1.2 22.9.3 8 1 16 1.4 17.8.5 1.7 1.1 4.6 1.5 6.3.4 1.8.6 8.4.4 14.7-.3 11.2-.2 11.5 3.9 17 2.3 3.1 5.1 6.1 6.1 6.8 1.1.7 3.5.9 5.4.5 1.9-.5 4.4-1.7 5.4-2.7 1.7-1.7 2.1-1.7 3.8 0 1.1 1 2.6 1.9 3.5 1.9.9 0 3-1.1 4.8-2.4 2-1.5 4.4-2.2 6.3-1.8 2 .4 3.9-.2 5.1-1.5 1.1-1.1 3.2-2.1 4.8-2 1.6 0 4.9-2 7.6-4.5 4.5-4.2 4.7-4.8 3.9-9.8-.7-3.8-2.8-7.4-7-12.3-3.4-3.9-8.1-8.9-10.6-11.1l-4.4-4c-.6-41-.7-58.6-.6-65.6.1-7 .9-15 1.9-17.8.9-2.8 3.5-14 5.7-24.8s4.8-26 5.9-33.7c1-7.7 2.2-22.8 2.6-33.6.4-11.2.1-26.9-.7-36.2-.8-9.1-2.5-21.4-3.7-27.4-1.9-8.9-2.1-12.6-1.1-21.6 1-8 .8-14.4-.4-24.7-1-7.7-2-19-2.2-25.1-.3-9.3 0-11.7 2-14.6 1.3-2 3.9-8.1 5.6-13.7 1.8-5.6 3.9-14.5 4.6-19.7.8-5.2 1.9-14.7 2.6-21 .6-6.3 1.5-26.3 2-44.4.6-22 .4-38-.6-47.7-.8-8-2.3-21.7-3.4-30.5-1-8.7-3.3-23.6-5.2-33-1.8-9.4-3.8-18.6-4.5-20.3-.7-1.8-2.5-7.5-4.1-12.7-1.8-5.9-3.8-18-5.1-31.2-1.2-11.9-2.5-32.3-3-45.4-.5-15.6-.4-25.7.5-29.2.8-3 2.9-8.6 4.7-12.4 2-4.1 4.3-12.2 5.5-19.7 1.1-7 2.2-14.6 2.5-16.8.5-3.8.8-4 3.2-2.6 1.4.9 2.8 3 3.2 4.8.3 1.7 1.8 7.2 3.3 12.1 1.5 4.8 4.2 11.7 5.9 15.2 1.7 3.5 4 7.2 5.1 8.3 1 1 2.9 4.2 4.2 6.9 1.2 2.8 2.6 8.8 3 13.4.4 4.5 1 10.2 1.5 12.7.4 2.4.9 5.9 1 7.6.2 1.8 2.4 9.6 4.9 17.5 2.6 7.8 6.1 16.4 7.9 19 1.9 2.7 5.3 9 7.7 14 2.4 5.1 4.3 9.8 4.3 10.5 0 .7.6 1.3 1.3 1.3.7 0 1.8 2 2.5 4.4.7 2.5 2 4.5 2.8 4.5.8 0 1.1.3.6.6-.5.4 1.5 5.1 4.3 10.5 2.9 5.4 6.9 13.8 9 18.7 2.2 4.9 4.7 12.1 5.8 15.9 1.1 4.1 1.9 13.5 2.1 22.4.1 9 .8 16.1 1.6 17.1s2.2 5.8 3.1 10.7c.8 4.9 2 10 2.5 11.4.5 1.4 1 3 1.1 3.5.1.6.8 2.8 1.5 5.1.8 2.3 1.8 10.5 2.3 18.2.4 8.2 1.5 14.9 2.4 15.9.8 1 1.2 2.2.7 2.8-.4.5-.3.9.3 1 .7 0 2.1-1 3.1-2.2 1.4-1.5 2.1-6.2 2.6-15.8.3-7.5.9-14 1.2-14.4.4-.4 1.5-.5 2.6-.1 1.3.5 2.6 4.9 4.3 13.7 1.3 7.1 3.3 16.4 4.4 20.5 1.1 4.1 3.1 8.1 4.3 8.9 1.8 1.1 2.6.9 3.6-.5.7-1.1 1-5.2.6-9.6-.4-4.1-1-9-1.4-10.8-.3-1.7-1.1-6.6-1.8-10.8-.7-4.1-.9-8.1-.4-8.8.4-.7 1.3-.2 2.1 1.2.7 1.4 1.5 3.4 1.6 4.5.2 1 .9 3 1.6 4.4.6 1.4 3.5 7.4 6.3 13.4 2.8 5.9 6.4 12.1 8 13.6 2.1 2.1 3.7 2.6 5.4 1.9 1.9-.7 2.2-1.8 1.6-5.4-.5-2.4-3.4-11-6.5-19-3.2-8.1-5.5-14.9-5.1-15.3.3-.3 0-1.3-.7-2.2-.7-.9-.8-1.8-.3-2.1.5-.3 1.5-.2 2.2.3.7.5 3.7 4 6.6 7.8 2.8 3.9 6.2 9 7.4 11.5 1.3 2.4 3.6 5.7 5.3 7.3 2.5 2.4 3.3 2.6 5.4 1.2 1.8-1.2 2.1-2.3 1.4-4.7-.5-1.8-5.1-10.6-10.1-19.7s-9.2-18-9.3-19.7c-.1-1.8 0-4.5.1-6 .1-1.6.9-2.9 1.8-2.9.9-.1 3.6 2 6 4.6 2.5 2.6 6.3 5.5 8.6 6.4 2.3.9 5.6 1.7 7.3 1.7 1.8 0 3.5-.6 3.8-1.3.4-.7.2-2.8-.3-4.7-.6-2-3-4.7-6.3-6.6-3.7-2.3-6.5-5.5-9.3-10.9-2.3-4.2-5.7-9.2-7.7-11.1-2-1.9-8.7-5.9-14.8-8.8-6.1-3-11.8-6-12.6-6.7-.8-.8-2.6-3.9-4.1-7.1-1.4-3.1-4.5-13.7-7-23.5-2.4-9.8-6.1-26.6-8.2-37.5-2.1-10.8-4.8-26.5-5.9-34.9-1.2-8.4-3-17.3-4-19.7-1-2.4-1.8-5.2-1.7-6 0-.9-2.2-6.3-4.9-12.1s-8.7-16.1-13.3-22.9l-8.5-12.4c0-15.2-.9-23.7-2-28.6-1-4.8-3.9-13.4-6.5-19l-4.6-10.2c2.3-19.2 2.9-31.3 2.9-39.4 0-12.4-.4-15.9-3.2-23.8-1.8-5.1-4.5-10.9-6.1-12.9-1.5-2-5.9-6.9-9.8-10.8-3.8-3.9-10.4-9.1-14.5-11.5l-7.6-4.5c-32.4 0-36.8-.5-42-2.5-3.5-1.3-6.6-2.8-7-3.2-.3-.5-3.8-2.9-7.6-5.5-3.8-2.5-9.7-7-12.9-10-5.9-5.4-6-5.6-7.5-16.9-.8-6.3-1.1-13.2-.6-15.3.5-2.1 2-5.2 3.3-6.9 1.9-2.5 2.5-5.1 2.5-11.2 0-7.3.2-7.9 2.5-7.3 1.7.4 2.8-.1 3.4-1.6.4-1.2 1.5-3 2.3-4.1.9-1 2.8-5.2 4.3-9.2 1.5-4 2.7-9.5 2.8-12.1 0-2.8-.8-5.4-1.9-6.3-1.6-1.3-2.1-1.3-2.5 0q-.6 1.5-.7-.3c0-1.1.5-5.4 1.2-9.6.8-4.9.8-10.6 0-16.2-.7-4.7-2.6-11.5-4.1-15.1-1.6-3.6-5-8.5-7.7-10.8-2.9-2.6-8-5.3-13.3-6.9-5.3-1.6-13.4-2.9-21.3-3.2-10.1-.4-14.6 0-22.2 2.1z"
			class="s0" />
		<path id="Pelo"
			d="M251.2 2.4c-4.9 1.3-10.7 3.3-13 4.4-2.3 1.2-5.6 3.7-7.4 5.6-1.8 1.9-4.5 6.1-5.9 9.2-1.8 4.1-2.7 9.5-3.2 19.1-.4 9.7-.1 15.6 1.4 21.9 1.1 4.7 2.1 10.4 2.1 12.7 0 2.3.6 5 1.3 6 1.1 1.7 1.3 1.7 2.5 0 .6-1 1.2-6.7 1.2-12.7 0-9 .6-11.8 3.1-16.5 1.7-3.2 3.7-9.6 4.5-14.3 1-6.4 1.9-8.7 3.6-9.1 1.2-.3 5.6-.9 9.8-1.4 4.2-.5 14.6-.9 23.2-.8 8.6.1 18.2.9 21.3 1.8 5.1 1.4 5.8 2 6.4 5.7.3 2.3.9 6.3 1.4 8.9.4 2.6 1.8 6.2 3.2 7.9 1.9 2.5 2.6 6.3 3.3 17.4.5 7.8 1.4 14.6 1.9 15.2.5.6 1.2.8 1.5.5.3-.4 1.1-4.4 1.8-8.9.7-4.6 2-11.4 2.8-15.3.8-3.8 1.2-12.4.9-19-.4-9.3-1.2-13.7-3.6-19-1.7-3.7-5.2-8.8-7.9-11.1-2.9-2.6-8-5.3-13.3-6.9-5.3-1.6-13.4-2.9-21.3-3.2-9.8-.4-14.7 0-21.6 1.9z"
			class="s1" />
	</g>
	<g id="Trasera">
		<path
			d="M873.8 1.2c-2.8.6-8.5 2.4-12.7 4-4.2 1.5-9.4 4.6-11.5 6.7-2.1 2.2-5.2 7.4-6.8 11.6-1.7 4.4-3.2 11.7-3.5 17.2-.4 5.2-.1 11.8.6 14.6 1.1 4.4.9 5.4-1.4 7.6-2.2 2.2-2.5 3.5-1.8 8.9.5 3.5 1.9 8.9 3.1 12.1 1.2 3.1 3.4 7.3 4.8 9.2q2.5 3.6 4.7 2.9c2-.6 2.3.3 2.3 7.6 0 6.9.5 8.8 3.1 12 2.6 3.1 3.2 5.2 3.2 11.1-.1 4.1-.8 10.5-1.7 14.3-.9 3.9-3.1 8.5-4.7 10.2-1.7 1.8-5.7 5.2-8.8 7.7-3.1 2.4-7.7 5.7-10.2 7.4-2.4 1.6-6.7 4.2-9.5 5.6-4.4 2.3-7.6 2.6-23.5 2.7-17.3.1-18.9.3-25.4 3.5-3.9 1.9-10.9 7-15.7 11.5-4.7 4.4-8.6 8.4-8.5 8.9 0 .6-1.4 2.8-3.1 5.1-1.7 2.3-4 6.7-5.2 9.9-1.1 3.1-2.3 11.7-2.7 19-.4 7.4-.1 20.8.7 29.9l1.5 16.5c-7.2 15.7-10.1 24.6-11 29.9-.9 5.2-1.7 13.5-1.7 18.4 0 7.5-.5 9.5-3.3 13.3-1.9 2.5-6 8.5-9.2 13.4-3.2 4.9-8 14-10.7 20.3-2.7 6.3-4.9 11.7-4.9 12.1 0 .3-.5 2.6-1.2 5-.6 2.5-3.2 17.1-5.7 32.4-2.6 15.4-5.8 33.1-7.3 39.4-1.4 6.3-4.2 17.6-6.2 25.1s-4.7 15.8-6 18.4c-2 4-4.3 5.7-12.8 9.9-5.7 2.8-10.3 5.5-10.3 6 0 .6-.4.8-.9.7-.6-.2-2.9 1.1-5.3 2.8-2.5 1.9-5.8 6.4-8 10.8-2.8 5.9-5.1 8.6-10 11.8-4.2 2.8-6.5 5.2-7 7.6-.5 1.9-.3 4 .3 4.5.6.6 3.6.7 6.8.2 4.4-.7 7-2.2 11.4-6.5 3.2-3.1 6.4-5.6 7.3-5.5.9 0 1.6.7 1.7 1.6.1.9.3 3 .5 4.7.3 2.1-2.7 9-8 19.1-4.5 8.7-9.3 17.9-10.5 20.3-1.2 2.5-1.9 5.1-1.7 5.8.3.7 1.5 1.6 2.7 2.1 1.5.5 3.2-.1 4.9-1.9 1.4-1.5 2.6-3.1 2.6-3.4.1-.4 2.7-4.7 6-9.6 3.2-4.8 6.9-10.3 8.3-12 1.8-2.2 3-2.8 3.9-1.9.9.8.7 2.5-.6 5.1-1.1 2-1.9 4.2-1.9 4.7s-2.3 7.4-5.2 15.3c-3.3 9.1-4.9 15.3-4.4 17.1.4 1.6 1.6 2.9 2.7 2.9 1 0 3.3-1.9 5.1-4.2 1.7-2.2 3.7-4.8 4.4-5.7.7-.8.8-1.9.3-2.2-.5-.4-.4-.7.3-.6.7 0 2.1-2.1 3-4.8 1-2.6 2.5-6.5 3.4-8.6.9-2.1 2.1-4.9 2.6-6.3.5-1.4.9-3 .8-3.5-.2-.5.3-1 1-1s1.3-1 1.3-2.2q0-2.2 1.2-.9c.8.8.6 4.8-.5 11.4-1 5.6-2.1 13.9-2.5 18.4-.5 4.6-.3 9.1.4 10.2.7 1.2 1.9 1.5 3.2.9 1.1-.5 2.5-2.2 3.2-3.8.6-1.6 2.7-10.3 4.6-19.4 1.9-9 4-17.6 4.6-19 .8-1.7 1.7-2.1 2.5-1.3.6.7 1.7 7.3 2.4 14.6.7 7.4 1.5 14.4 1.9 15.6.4 1.7 1.1 1.9 2.8 1 1.2-.6 2.4-2.2 2.6-3.5.2-1.2.9-8 1.6-15 .7-7 3-19.5 5.1-27.9 2.1-8.4 4.1-15.6 4.4-15.9.2-.4.8-2.9 1.3-5.7.4-2.8 1.3-12.6 1.8-21.6.6-9.1 1.6-18.3 2.3-20.4.7-2.1 2.5-6.6 4.1-10.1 1.6-3.5 8.9-18.4 16.3-33.1 7.3-14.6 15.3-30.6 17.8-35.5 2.4-4.9 5.7-12.4 7.3-16.6 1.5-4.2 3.7-11.9 4.7-17.1 1.1-5.3 2.3-14.1 2.8-19.7s1.9-12.5 3.1-15.3c1.2-2.7 3.1-5.9 4.1-6.9 1.1-1.1 3.4-4.8 5.1-8.3 1.8-3.5 4.8-11.5 6.7-17.8 1.9-6.3 3.7-12.1 4-13 .3-.9 1.5-1.5 2.7-1.3 1.7.3 2.5 2.7 3.7 12.4.9 6.6 2.8 15.8 4.3 20.3 1.5 4.6 3.2 8.9 3.8 9.6.6.7 1.7 3.8 2.6 7 .9 3.1 1.7 8.5 1.8 12 .1 3.5-.3 14.1-.8 23.5-.6 9.5-1.3 20.3-1.7 24.2-.3 3.8-1.2 13.8-1.9 22.2-.9 10.8-2.4 18.9-5.2 28-2.2 6.9-5.1 17.5-6.4 23.5-1.3 5.9-3.2 15.9-4.2 22.2-1 6.3-2.4 16.6-3.2 22.9-.7 6.3-1.6 14.3-2 17.8-.4 3.5-1 15.2-1.4 26-.4 10.8-.1 33.1.6 49.6.9 18 2.5 35.9 4.1 45.1 1.5 8.4 3.8 18.6 5.2 22.8 1.4 4.2 3.7 9.2 5 11.2 1.8 2.6 2.4 5.7 2.4 12.3 0 4.9-.9 14.8-1.9 22-1.3 8.2-1.9 19.3-1.6 30.1.2 12.4-.3 20.7-2 29.9-1.3 7.3-2.5 22.1-2.9 34.9-.5 15.8-.2 27.8 1.3 41.3 1.1 10.5 3.7 28 5.8 38.8 2.1 10.8 4.9 24.5 6.3 30.5 1.4 5.9 2.6 15.6 2.8 21.6.2 5.9 0 18.2-.5 27.3-.5 10.3-.2 18.9.6 22.9.8 3.5 1.1 7.7.6 9.5-.4 1.7-5.4 7.7-11 13.3-6.5 6.6-10.6 11.8-11.4 14.6-.7 2.5-1.3 5.8-1.3 7.4 0 1.7 1 3.2 2.6 3.8 1.4.5 2.8 1.9 3.2 3.1.3 1.3 2.1 2.6 4 3.1 2 .4 5 1.6 6.7 2.6 1.7 1.1 4.3 1.6 5.7 1.2 1.5-.4 4.1.4 6.1 1.8 2.9 2.1 3.9 2.2 6.7.9 2.7-1.4 3.8-1.3 7.3.8 2.5 1.4 5.2 2 6.9 1.5 1.6-.4 4.9-3.5 7.5-6.8 4.4-5.9 4.5-6.2 3.9-14.9-.4-5.3 0-12.7 1.1-18.4 1-5.3 2.1-16.1 2.3-24.2.3-10.1-.1-16.1-1.3-19.7-.9-2.8-2.1-12.5-2.5-21.6-.5-9.7-.2-24.1.7-34.9.8-10.1 2.5-23 3.8-28.6 1.3-5.6 4.1-15.9 6.4-22.9 3.8-12 4-13.7 4.1-33 0-12.1-.8-26.7-2-36.2-1.2-8.7-2.7-20.5-3.5-26.1-1.2-9.2-1-10.8 1.5-17.7 1.5-4.2 3.3-10.5 3.9-14 .6-3.5 1-14.4.9-24.2-.3-16.7 0-19 4.5-38.1 2.7-11.2 7.3-30.3 10.4-42.5 3-12.3 6.5-26.9 7.7-32.4 1.7-7.8 2.3-16.3 2.3-35.9.1-14.2.5-25.8 1-25.8.6 0 1.3.6 1.6 1.3.4.7 2 1.3 3.6 1.3s3.5-.7 4.1-1.4c.7-.8 1.9-1.1 2.8-.7 1.2.6 1.3 1.9.2 5.6-.9 3.1-1.2 11.8-.7 25.1.5 13.8 1.5 24 3.3 31.7 1.5 6.3 5.2 22.6 8.4 36.2 3.2 13.7 7.8 33.1 10.2 43.2 4 17.1 4.2 19.5 3.5 32.4-.4 8.2-.2 17.8.7 23.2.8 5.1 2.6 12 4.1 15.3 2.3 5.1 2.5 7.2 1.7 13.6-.5 4.2-1.1 9.4-1.3 11.5-.2 2.1-1.1 7.5-2 12-1 5.1-1.6 19.9-1.6 38.2l-.1 29.8c6.6 16.8 9.3 26.2 10.3 31.8 1 5.6 2.4 17.9 3 27.3.7 9.4 1.3 19.7 1.5 22.9.2 3.1-.1 10.3-.7 15.8-.5 5.6-1.7 13.4-2.7 17.2-1.3 5.4-1.5 11-.7 24.8.6 9.8 1.7 19.8 2.5 22.2.7 2.5 1.1 8.3.7 13-.4 5.6 0 10 1.1 12.7 1 2.3 3.3 6 5.1 8.3 2 2.4 4.6 4.1 6.2 4.2 1.6 0 4.5-1.1 6.4-2.6 3.2-2.3 3.8-2.4 6.7-.6 2.8 1.6 3.5 1.6 6.3 0 1.8-1.1 4.9-2 6.9-2 2.1 0 4.6-.8 5.6-1.9 1.1-1 2.9-1.9 4-1.9 1 0 3.1-.5 4.5-1.2s2.3-1.7 1.9-2.3c-.3-.5.9-1.6 2.6-2.5 2.7-1.4 3.1-2.3 2.7-7-.3-3-1-6.4-1.6-7.6-.7-1.2-5.5-6.5-10.7-11.9-8.3-8.4-9.6-10.4-10.4-15.5-.5-3.3-.2-8.3.5-11 .9-3.4 1-11.1.3-22.3-.6-9.4-.9-21.1-.8-26 .2-4.9 1.8-15.2 3.5-22.9 1.8-7.7 4.3-19.1 5.7-25.4 1.3-6.3 3.3-18.9 4.6-28 1.6-11.9 2.2-24.7 2.2-46.3-.1-24-.6-32.3-2.5-42-1.8-9.2-2.3-16.4-2-30.5.2-12.1-.3-23-1.6-31.7-1.1-7.4-2-17.2-2-21.9 0-4.8.4-8.6.9-8.6s1.9-2.2 3.1-4.8c1.1-2.6 2.7-6.5 3.4-8.6.8-2.1 2.2-7.2 3.2-11.4 1.1-4.2 2.9-15.9 4.1-26 1.5-12.9 2.1-30.1 2.3-57.2.1-23.9-.5-44.1-1.5-52.8-.9-7.6-2.1-17.9-2.8-22.8-.7-4.9-1.5-11.2-1.9-14-.4-2.8-2.2-12.2-4-21-1.8-8.7-4-17.6-5-19.7-.9-2.1-2.5-6.9-3.6-10.8-1-3.8-2.5-12.7-3.2-19.7-.7-6.9-1.7-17.5-2.1-23.5-.5-5.9-1.2-19.1-1.6-29.3-.5-10.2-.4-21.8.1-25.7.5-4 2.6-10.8 4.6-15.2 2-4.3 4-9.6 4.4-11.7.5-2.1 1.2-5.3 1.5-7 .3-1.7 1-7.2 1.4-12.1.5-4.9 1.5-9.2 2.3-9.7.7-.5 2-.2 2.7.6.8.8 2.7 6.1 4.4 11.7 1.6 5.6 4.8 14.1 7 19s5.1 9.8 6.3 10.8c1.2 1.1 2.7 2.9 3.3 4.2.7 1.2 2 8.3 3.1 15.8 1 7.6 2.1 15.7 2.4 18.1.3 2.5.7 4.8.8 5.1.1.4.2 1.1.1 1.6s1.3 5.1 3.1 10.2c1.9 5 4.8 12.3 6.6 16.2 1.9 3.8 4 7.4 4.7 7.9.7.5.9.9.4 1-.6 0 1.5 4.4 4.4 9.8 3 5.4 9.6 18.4 14.7 28.9 5.2 10.5 10.4 21.4 11.7 24.2 1.4 2.8 3.3 7.9 4.4 11.4 1.2 3.9 2 11.2 2 19.1 0 7 .8 15.8 1.7 19.7 1 3.8 2.5 10.4 3.3 14.6.9 4.2 2.2 9 2.9 10.8.7 1.7 1.5 3.7 1.7 4.4.2.7 1 4.7 1.7 8.9s1.3 11.1 1.4 15.3c0 4.2.7 9.7 1.6 12.4.8 2.6 2.1 4.8 2.8 4.8.7 0 1.7-1.9 2.3-4.2.6-2.3 1.2-5.9 1.5-8 .2-2.1.8-7.6 1.2-12.3.5-6.5 1.2-8.6 2.6-8.6 1.3 0 2.5 2.6 3.7 8.6 1 4.7 2.8 13.4 4 19.3 1.2 6 3 12.1 3.9 13.7 1 1.6 2.6 2.8 3.7 2.8 1 0 2.2-1 2.5-2.2.4-1.2.4-6.2 0-11.1-.3-4.9-1.4-11.7-2.3-15.2-1-3.5-1.6-7.8-1.4-9.6.2-1.7.4-3.4.4-3.8.1-.3.9.5 1.8 1.9 1 1.4 2.4 4.6 3.2 7 .8 2.5 3.2 8 5.3 12.4 2.1 4.4 3.8 8.5 3.8 9.2 0 .7 1.7 3.3 3.8 5.7 2.1 2.5 4.7 4.5 5.7 4.5 1.1 0 2.3-1.6 2.7-3.5.6-2.5-.7-7.2-4.4-16.2-2.9-7-5.2-13.9-5.2-15.3-.1-1.4-.9-3.9-1.8-5.7-1-1.8-1.3-4-.8-5.1.7-1.4 3.4 1.7 10 11.5 5 7.3 9.8 14.3 10.7 15.5.8 1.3 2.8 2.3 4.4 2.3 1.6 0 3.1-.9 3.5-1.9.3-1.1-2.2-7-5.6-13.1-3.4-6.1-8.1-14.5-10.3-18.7-2.3-4.2-4.3-9.8-4.6-12.4-.3-3.2.2-5.3 1.5-6.4 1.6-1.3 2.8-.7 7.3 3.7 2.9 3 7.6 6 10.4 6.9 2.8.9 6.1 1.2 7.3.7 1.2-.4 2.2-1.9 2.2-3.3s-1-3.6-2.2-4.9c-1.2-1.2-4.2-3.5-6.6-4.9-3.1-1.8-5.4-4.7-7.4-9.1-1.5-3.6-5-8.6-7.6-11.1-2.6-2.5-10-7.2-16.5-10.5-10.8-5.4-12-6.4-14.9-12.2-1.7-3.5-5.4-15.8-8.2-27.4-2.8-11.5-5.9-25.2-6.9-30.5-1-5.2-2.7-14.9-3.8-21.6-1.1-6.6-2.6-16.3-3.4-21.6-.8-5.2-2.6-13.2-4-17.7-1.5-4.6-4.1-11.4-5.9-15.3-1.8-3.8-5.8-11.3-8.9-16.5-3.1-5.2-7-11-8.7-12.7-2.7-2.8-3.2-5-4.3-18.4-.6-8.4-2.1-18.4-3.2-22.3-1.2-3.8-3.7-10.2-5.8-14.3-3.6-7.2-3.6-7.3-2.3-20.3.7-7.2 1.2-18.7 1.2-25.7s-.6-16.2-1.4-20.4c-.8-4.1-3.1-10.7-5.2-14.6-2.1-3.8-7.6-10.7-12.3-15.2-4.7-4.6-11.9-10-16.1-12.1-7.3-3.7-8.1-3.8-25.4-3.8-17.4 0-17.9-.1-26-4.1-4.5-2.2-12.8-7.8-18.4-12.3-5.6-4.6-10.8-9.9-11.7-11.8-.8-2-1.9-8.7-2.4-15-1-11.2-.9-11.5 2.4-15.6 2.9-3.5 3.4-5.3 3.4-12.3 0-7.7.2-8.3 2.6-7.7 1.8.5 3.2-.4 5.1-3.1 1.4-2.1 2.1-3.8 1.5-3.8-.5 0-.2-.7.7-1.6.8-.9 2.4-4.8 3.4-8.6 1.1-3.9 2-8.9 2-11.1 0-3.1-.7-4.4-2.6-5.1-2.4-.9-2.5-1.6-1.6-6.7.5-3.1.9-9.1.8-13.3 0-4.2-1.2-11.4-2.4-15.9-1.9-6.4-3.7-9.6-8.2-14.2-4.5-4.7-7.5-6.4-14.6-8.6-5.7-1.8-13.5-2.9-21.6-3.3-7-.3-15 0-17.8.6z"
			class="s0" />
		<path
			d="M873.8 1.2c-2.8.6-8.5 2.4-12.7 4-4.7 1.7-9.2 4.6-11.8 7.4-2.3 2.5-5.3 7.7-6.8 11.5-1.4 3.9-2.9 11-3.3 15.9-.4 5.2 0 11.8.9 15.9.9 3.8 2.1 8.4 2.7 10.2.6 1.9 3.2 4.2 6.3 5.7 2.9 1.4 6.5 4 8 5.7 1.5 1.8 4.5 6.7 6.6 10.8l3.9 7.6c34.9.5 41 .2 42.3-.9.9-.9 3.3-4.8 5.2-8.6 2-3.8 4.6-8.2 5.9-9.7 1.3-1.4 4.8-3.9 7.8-5.4 2.9-1.5 5.9-3.7 6.5-4.9.6-1.2 1.8-7.1 2.6-13 1.3-9 1.3-12.3-.3-19.7-1-4.9-2.9-11.2-4.2-13.9-1.3-2.7-4.6-6.9-7.2-9.2-2.9-2.6-8-5.2-13.3-6.9-5.3-1.6-13.5-2.8-21.3-3.1-7-.3-15 0-17.8.6z"
			class="s1" />
	</g>

    <path id="No marcados" fill="#3f4140" d="M807.1 200.9c-5.9 2.8-10.9 5.6-11.1 6.3-.2.6-.9.9-1.6.5-.7-.3-2.1.3-3.2 1.3-1 1.1-1.9 1.6-1.9 1.3 0-.4-1.1-.1-2.5.6q-2.6 1.3-1.9 3.8c.3 1.4 1.3 2.6 2.1 2.6s1.1.4.7.9c-.5.5 1.1 4.7 3.4 9.2 2.4 4.6 6.9 10.7 10.1 13.7 3.3 3 6.5 5.1 7.2 4.8.7-.4 1.4-.2 1.6.3.1.6 3.4 2.8 7.3 4.9 3.8 2.2 7.4 4 7.9 4.1.5.1 3 1 5.4 2.1 2.4 1 5.6 1.9 7 1.9 2.1 0 2.4-.7 2.1-4.1-.3-2.3-3.4-15.3-6.8-28.9-3.5-13.7-7.1-26.1-8.1-27.8-1.5-2.4-2-2.6-3.6-1.2-1.4 1.2-1.7 1.3-1.3.1.4-.9 0-1.6-.7-1.6s-6.2 2.3-12.1 5.2zm145.6-2.4c-.9 1.6-3.3 9.5-5.1 17.5-1.9 8-5.1 20.5-7.2 27.6-2 7.2-3.4 13.6-3.1 14.3.4.7 2.1 1.3 3.8 1.3 1.8 0 3.2-.6 3.2-1.3 0-.7.7-1.1 1.6-.9.9.1 3.5-.6 5.8-1.6 2.3-1.1 4.1-2.5 4.1-3.2-.1-.7.3-.8.9-.3.5.5 3-.3 5.4-1.7 2.5-1.4 6.7-3.9 9.5-5.6 2.8-1.7 5-3.6 4.8-4.4-.2-.7.1-1.1.6-.7.6.3 2.8-1.8 4.9-4.8 2.2-2.9 5.3-8.2 6.8-11.7 1.6-3.5 3-7.2 3.2-8.3.1-1-.3-2.5-1.1-3.2-.8-.8-7.5-4.4-15-8-7.5-3.6-14.3-6.3-15-5.9-.7.3-1.2 0-1.2-.7s-1.2-1.2-2.6-1.2c-1.3 0-3.3 1.3-4.3 2.8zm-172.2 31.8c-.6 1.6-.7 6.7-.1 11.7.6 4.9 2.3 11.1 3.7 13.7 1.8 3.1 3.2 4.4 4.3 3.8q1.5-.9.6.7c-.6.9.1 2.3 1.9 3.4 1.6 1 3.4 1.5 4.1 1 .7-.5.9-.4.4.3s.6 2.1 2.5 3c1.9.9 6.3 2 9.8 2.4 3.5.4 9.2 0 12.7-.8 3.5-.9 7.4-2.6 8.7-3.7 1.2-1.2 2.2-1.6 2.2-.9 0 .7.5.4 1.2-.6q1.1-1.9-.4-2.9c-.8-.5-2.9-.9-4.7-1-1.7 0-5.4-.9-8.2-2-2.8-1-5.7-2-6.4-2.1-.7-.2-3-1.6-5.1-3.2-2.1-1.6-4.1-2.9-4.4-2.8-.4 0-3.7-3-7.5-6.6-3.7-3.7-7.9-8.9-9.2-11.5-1.3-2.6-3-4.8-3.7-4.8-.7 0-1.8 1.3-2.4 2.9zm211.6.3c-1.1 1.8-1.6 3.9-1.1 4.8.5.9.4 1.3-.3.9s-4.1 2.4-7.6 6c-3.5 3.7-6.1 7.1-5.7 7.6.3.4 0 .5-.7.1s-3.8.9-7 2.9c-3.1 2-6.3 4.2-7 4.8-.7.6-2.1 1.1-3.1 1.2-1.1.1-4.4.6-7.4 1.2-2.9.5-5.4 1.4-5.4 2 .1.5-.5.6-1.2.3-.7-.4-1 .2-.6 1.2.3 1.1 1.2 1.7 1.9 1.3.7-.3 1.2 0 1.2.7s.6.9 1.3.6c.7-.4 1.3-.1 1.3.6s.5 1 1.2.7c.7-.4 1.5 0 1.7.9.3 1.1 3.9 1.6 12.2 1.6 6.4 0 12.1-.6 12.6-1.3.5-.7 1.7-1.4 2.8-1.7 1-.2 2.3-1.2 2.8-2.2.5-1 1.5-1.5 2.2-1.2.7.4 2-.2 2.9-1.3.9-1.1 1-1.9.3-1.8-.7 0 .2-1.1 1.9-2.6 1.8-1.5 2.5-2.4 1.6-2-.9.4-1.6-.1-1.6-1.1 0-1.2.8-1.7 1.9-1.3 1.2.4 2-.2 2.1-1.6.1-1.2.3-2.8.4-3.5.1-.7.6-2 1.1-2.9.5-.8.8-4.5.7-8.2-.1-3.7-.4-7.4-.7-8.3-.2-.8-.9-1.6-1.5-1.6-.7 0-2.1 1.5-3.2 3.2zM810.2 408.7c-1.4.9-1.9 1.7-1.2 1.7s.3.7-.9 1.6c-1.4 1-2.7 4.8-3.6 11.1-.8 5.2-1.1 12.4-.7 15.9.4 3.5.8 7.2.9 8.2 0 1.1.3 3.4.7 5.1.5 3.1 1 2.8 9.4-5.4 4.8-4.7 9.5-8.5 10.4-8.6.9 0 3.3-1.3 5.4-3l3.8-3c-6.9-11.3-9.6-14.8-10.5-15.1-.8-.2-1.5-1.2-1.5-2 0-.9-1.5-3.1-3.3-4.8-1.9-1.7-4.1-3.3-4.9-3.3-.9-.1-2.7.6-4 1.6zm143.8 7.1c-3.8 5.1-7.6 10.9-8.4 13-1.2 3.3-1 4.2 1.6 6.7 1.5 1.5 3.3 2.5 3.8 2.2.5-.3.9 0 .9.7s.6.9 1.3.6c.7-.4 1.3-.2 1.2.3 0 .5 2 2.1 4.5 3.5s6.4 5.1 8.6 8.3l4.1 5.7c1.3-5.9 1.7-13.9 1.8-21.6.1-7.8-.5-16-1.3-18.4-.8-2.5-2.5-5.5-3.8-6.7-1.3-1.2-2.7-1.8-3.1-1.3-.3.5-.6.3-.6-.6 0-.9-.8-1.6-1.7-1.6-1 0-5 4.1-8.9 9.2zM56.8 514.1c-1.4.4-2.4 1.3-2.2 2.2.2.8-.1 1.1-.6.6-.6-.5-3.4.7-6.4 2.8-3 2.1-5.4 4.4-5.4 5.1 0 .7-.9 1.2-1.9 1.2-1.1 0-2.8 1.5-3.8 3.2-1.1 1.7-1.5 3.2-1 3.1.6 0 .3.7-.5 1.6-.8.9-1.8 3.5-2.2 5.8-.4 2.4-.2 4.1.5 4.1s1 .9.6 1.9c-.3 1.1 1.5 4.1 4.2 7 3.3 3.5 5 4.6 5.7 3.5.6-1.1.9-.9.9.6 0 1.3 1.6 3.1 3.5 4.1 2 1 5.4 2.8 7.7 3.8 2.2 1.1 6.5 2.4 9.5 2.8 3.5.6 6.9.2 9.7-.9 2.3-1 4.8-2.8 5.4-4 .6-1.3 1.9-6.7 3-12.1 1-5.4 1.9-13.9 1.9-18.8.1-7.6-.3-9.2-2.8-11.6-1.6-1.5-4.3-3.1-6.1-3.7-1.7-.5-4.3-1.1-5.7-1.3-1.4-.2-4.6-.7-7-1-2.4-.3-5.6-.3-7 0zm417.3-.1c-.3.3-2.7.9-5.3 1.2-2.6.4-5.9 1.2-7.3 1.9-1.4.7-2.5 1.9-2.5 2.6 0 .7-.9 1.2-2 1.2-1 0-2.1 1.3-2.5 2.9-.3 1.6 0 8.3.7 14.9.7 6.7 2.1 15.1 3.1 18.8 1.2 4 3.1 7.4 4.8 8.6 1.6 1 5.1 1.9 7.9 1.9 2.8 0 7.8-.9 11.1-1.9 3.4-1.1 6.1-2.7 6-3.5 0-.9.5-1.2 1-.7s2.7-.3 4.8-1.8c2.1-1.5 5.6-4.5 7.8-6.7 2.3-2.1 4.7-5.4 5.4-7.4.8-1.9 1.2-4.2.9-5-.3-.9-.9-3.4-1.4-5.4-.5-2.2-3.8-6.7-7.4-10.3-3.6-3.5-9.1-7.6-12.3-9.1-3.1-1.6-7.2-2.9-9-2.9-1.8 0-3.5.3-3.8.7zm204.1.6c-.4.7-1.6 1-2.6.6-1.1-.3-1.9-.2-1.9.3 0 .6-.7 1-1.6 1.1-.9 0-3.5 1.5-5.8 3.2-2.2 1.7-4.1 3.5-4.1 4s-.8 1-1.9 1c-1 0-3 1.8-4.4 4.1-1.4 2.3-3.1 6.3-3.8 8.9-.9 3.2-.9 5.8.1 8.2.8 2 3.5 5.6 6 8.2 2.6 2.6 5.1 4.5 5.6 4.1.6-.3 1 .2 1 1.1-.1.9.2 1.1.6.6.4-.5 1.8.2 3.2 1.6 1.4 1.4 3.1 2.3 3.8 1.9.7-.3 1.3-.1 1.3.6s2.6 1.9 5.7 2.6c3.1.7 7.6 1.3 9.8 1.3 2.3 0 5.5-.9 7-1.9 1.6-1.1 3.4-3.8 4.1-6.1.7-2.3 1.8-7.5 2.5-11.7.7-4.2 1.4-11.4 1.5-15.9.2-5.7-.2-8.2-1.2-8-.8.2-1.2-.2-.8-.9.3-.7-.4-2.4-1.6-3.8-1.2-1.3-5.7-3.3-9.9-4.4-4.2-1.1-8.6-2-9.7-2-1.2 0-2.5.6-2.9 1.3zm413.5-.4c-1.7.3-4 .9-5.1 1.3-1 .4-2.3.7-2.8.6-.6-.2-3 .9-5.4 2.3-2.9 1.6-4.3 3.2-3.8 4.4.3 1.1-.1 1.9-1 1.9-1.2 0-1.4 2.3-.6 9.9.5 5.4 1.6 13.1 2.5 17.2.9 4 2 7.3 2.5 7.3.6 0 .7.5.4 1.2-.4.7.9 2.8 2.8 4.7 3.1 3 4.3 3.3 10.2 2.8 4.2-.3 7.1-1.2 7.8-2.4.6-1 1.8-1.5 2.5-.9.8.5 2.3.1 3.3-1 1.1-1 2.3-1.5 2.6-.9.4.5.7.2.7-.7-.1-.9.4-1.5.9-1.3.5.1 2.6-.6 4.7-1.7s5.7-4.2 8-7c3.1-3.7 4.1-6.2 4.2-10 0-3.7-1.1-6.8-4.2-11.3-2.3-3.4-5.3-6.8-6.6-7.6-1.4-.8-3.4-2.2-4.5-3.2s-4.2-2.9-7-4.1c-2.8-1.3-6-2.3-7-2.2-1.1.1-3.3.4-5.1.7zM28.2 528.6c0 .7-2.3 3.7-5.1 6.6-2.8 3-4.8 5.7-4.4 6.1.3.3-1.5 2.5-4.1 4.7-2.7 2.3-5.3 4.2-5.8 4.2-.6 0-1.8.7-2.7 1.6-.9.8-2 2.7-2.4 4.1-.7 2.1-.2 2.6 2.9 2.8 2.3.2 4.8-.5 6.2-1.9 1.3-1.2 3.4-2.8 4.7-3.6 1.4-.8 2.3-2.4 2.1-3.5-.1-1.2.3-1.8 1-1.4.7.3 2.4-1.4 3.8-3.9 1.4-2.4 2.3-5.3 1.9-6.3-.3-1.1-.2-1.9.3-1.9.6 0 1.6-2 2.3-4.4.7-2.5.8-4.5.3-4.5s-1 .6-1 1.3zm482.4 0c.6 1 1.2 2.3 1.4 2.8.2.5.4 1.1.4 1.3.1.2.3 2 .6 4.1.3 2.1 2 6.3 3.8 9.2 1.7 3 4.1 5.9 5.4 6.4 1.2.5 3.5 2.2 5 3.8 1.7 1.7 4.4 2.9 6.7 2.9 2.1 0 3.8-.3 3.8-.7 0-.3-.5-2-1.2-3.8-.7-1.7-3.2-4-5.4-5.1-2.3-1.1-4.9-1.9-5.8-1.9-.8 0-1.5-1.1-1.5-2.5s-1-3.1-2.3-3.8c-1.2-.7-1.6-1.2-.9-1.3.7 0 0-.8-1.6-1.9-1.6-1-2.7-2.3-2.4-2.9.3-.5-1.2-2.6-3.3-4.7-2.1-2.1-3.3-3-2.7-1.9zm134.5 2.2c-1.4 1.9-2.4 3.9-2.2 4.4.1.6-.6 1-1.6 1-1.1 0-2.3 1.3-2.8 2.8-.4 1.6-1.4 3.5-2.2 4.2-.8.7-1.7 1.8-2 2.5-.4.7-2.9 2.4-5.6 3.8-2.7 1.4-5.5 3.9-6 5.4-1 2.5-.6 3 2.4 3.7 2.3.5 3.8.2 4.4-1 .5-.9.9-1.1.9-.4 0 .7 1 0 2.3-1.6 1.2-1.5 2.7-2.8 3.3-2.8.5-.1 1.9-1 2.9-2 1.1-1 1.6-1.9 1.2-1.9-.4 0 .3-1.2 1.5-2.6 1.2-1.4 3.5-6.3 5.1-10.8 1.6-4.5 2.4-8.2 1.9-8.2-.5.1-2.1 1.6-3.5 3.5zm483.5-2.6c0 .9.4 1.6.9 1.6s1.1 1.6 1.3 3.5c.2 1.9.9 4.1 1.5 4.8.6.7 1.5 3 1.9 5.1.4 2.1 2.6 5.7 4.8 8 2.3 2.4 5.6 5 7.3 6 1.8.9 4.4 1.6 5.8 1.5 1.5-.1 2.6-1.1 2.8-2.7.2-2-1.6-4-7.2-7.7-4.2-2.8-7.3-5.6-7-6.1.3-.5-.6-2.1-2-3.5s-2.5-2.8-2.5-3.1c0-.4-1.7-2.5-3.8-4.8-2.1-2.3-3.8-3.4-3.8-2.6zM31.3 560c-.7.5-5.4 8.5-10.5 17.8-5.6 10.3-9 18-8.8 20 .2 1.7.7 2.7 1.1 2.2.4-.5 3.1-3.9 6-7.6 2.9-3.7 5-7.2 4.7-7.9-.4-.7.2-1.6 1.2-1.9 1.1-.4 1.8-1.1 1.7-1.6-.2-.5 1.5-3 3.8-5.4 2.3-2.5 4.1-5 4.1-5.7 0-.7 1.1-2 2.5-2.9 1.4-.9 2.6-2.4 2.6-3.5 0-1-.6-1.6-1.3-1.3-.7.4-1.6-.2-1.9-1.2-.4-1.1-1.4-1.9-2.2-1.9-.9 0-2.2.4-3 .9zm471.8 1.1c-1.3 1-2 2.8-1.6 4.3.4 1.4 1.5 2.6 2.6 2.6 1 0 1.9.5 1.9 1.2s3.8 6.7 8.5 13.4c4.8 6.7 9 12.1 9.6 12.1.5 0 .6.4.3.9s.4 1.9 1.6 3.1c2.1 2 2.2 2 2.5-.7.2-1.5-.4-4.3-1.3-6.3-.9-2.1-2.2-3.3-3.1-2.9q-1.6.8-.9-1.5c.5-1.3-.5-3.8-2.5-6.3-1.8-2.3-3-4.2-2.7-4.2.4 0-1.3-3.8-3.6-8.5-2.9-5.7-5.1-8.7-6.7-8.8-1.3-.1-3.4.6-4.6 1.6zm145.2.2c-.7 1.2-.8 2.7-.3 3.2s.2 1-.7.9c-.9 0-1.3.6-.9 1.3.3.7 0 1.3-.7 1.3s-1.2.5-1.2 1.2-1.5 3.3-3.2 5.7c-1.8 2.5-2.9 5.1-2.6 5.8.4.7.1 1.2-.6 1.2s-1.3.6-1.3 1.3c0 .7-1.4 3.4-3.2 6-1.9 2.9-3 6.2-2.8 8.2.2 2.7.7 3.1 2 1.9.9-.8 1.6-2.2 1.6-3.1-.1-.8.3-1.5.8-1.5.6 0 3.4-3.4 6.4-7.6 3-4.3 5.4-8.3 5.4-9 0-.7.6-1.3 1.3-1.3.7 0 1-.5.6-1.2-.3-.7-.2-1.3.3-1.3s2.8-2.4 5.1-5.4c2.9-3.8 3.7-5.9 2.8-7-.6-.9-1.8-1.3-2.5-.9-.7.3-1.2 0-1.2-.7s-.9-1.2-1.9-1.2c-1 0-2.5 1-3.2 2.2zm473.2-.2c-1.3 1.1-1.6 1.5-.6 1 1.6-.7 1.6-.5.4.9-.8 1-1.2 2.5-.9 3.4.3.8 1.4 1.6 2.4 1.6 1.1 0 1.7.5 1.3 1.2-.3.7.5 2 1.9 2.9 1.4.9 2.3 1.9 1.9 2.2-.4.4.8 2.2 2.5 4.1 1.8 2 3.3 4 3.4 4.5.1.5 1.7 3.1 3.5 5.8 1.8 2.6 3.8 4.7 4.5 4.7.6 0 .8.4.3.9-.4.5-.1 1.7.8 2.6.8.9 2.3 1.6 3.1 1.6.9 0 1.6-.8 1.6-1.6 0-.9-.9-2.5-1.9-3.5-1.1-1.1-2.1-2.8-2.3-3.8-.2-1.1-1.8-4.5-3.5-7.7-1.6-3.1-3.8-7.4-4.8-9.5-.9-2.1-2.5-4.4-3.6-5.1-1-.7-1.7-1.8-1.6-2.5.2-.7 0-2.3-.5-3.5-.5-1.2-1.9-2.2-3.1-2.2-1.2 0-3.4.9-4.8 2zM41.6 569.5c-.3.9-3.7 10.2-7.5 20.7-3.9 10.5-7.4 20.6-7.7 22.5-.7 3.2-.5 3.4 2.1 2.5 1.6-.6 4.1-3.6 5.6-6.7s2.5-6 2.3-6.6c-.3-.5-.1-1.1.4-1.2.6-.2 2.9-4.6 5.1-9.9 2.3-5.2 4.2-10.2 4.1-11.1 0-.9.5-1.7 1.2-1.9.6-.2 1.3-1.5 1.6-2.9.2-1.4 1-2.9 1.7-3.4s-.3-1.5-2.3-2.2c-1.9-.7-4-1.3-4.8-1.3-.7 0-1.5.7-1.8 1.5zm451-.1c-1.4.8-2.7 1.7-2.8 1.9-.2.3.9 2.9 2.4 5.9 1.5 2.9 3.2 5.7 3.9 6 .6.3 1 .9.8 1.3-.2.3.8 3.6 2.2 7.3 1.3 3.7 2.9 6.7 3.6 6.7.6 0 .8.2.3.6-.5.3.3 3.3 1.8 6.7 1.5 3.3 3.9 7 5.4 8.2 1.5 1.2 3.2 1.9 3.7 1.6.5-.4 1-.9 1-1.3 0-.3-.5-.5-1-.5-.5.1-1.5.2-2.2.1-.7-.1-.6-.9.3-2.1 1.3-1.6.5-4.9-4.7-18.8-3.4-9.2-6.7-18.5-7.4-20.6-.6-2.1-1.9-3.9-2.9-4.1-1-.2-3 .3-4.4 1.1zm167.1 1.7c-.7 1.8-1.2 3.6-1 4.2.1.5-.8 3.2-2 6s-1.9 5.8-1.5 6.7c.4.8.1 1.3-.6.9-.7-.3-3 4.2-5.1 10.2-2.1 5.9-3.5 11.4-3.1 12.1.3.7 0 1.2-.7 1.2s-1.2.6-1.2 1.3c0 .7 1 1.3 2.2 1.3 1.2.1 2.9-.7 3.7-1.6.8-.9 4-7.6 7.2-15 3.1-7.3 7.2-16.6 9-20.6 1.9-4.3 2.8-7.6 2-7.9-.7-.4-1.8-.4-2.5 0-.7.3-1.6 0-1.9-.7-.4-.7-1.3-1.2-2-1.2s-1.8 1.4-2.5 3.1zm450.4-.9c-1.4 1.5-1.6 2.4-.6 2.8.8.4 1.5 1.2 1.5 1.9.1.7.4 2.2.7 3.2.3 1.1 1.6 4.2 2.9 7 1.2 2.8 4.3 10.2 7 16.5 2.6 6.3 5.6 12.2 6.8 13 1.1.9 2.5 1.6 3 1.6s1-1.3.9-2.8c0-1.6-2.8-10.3-6.2-19.4-3.4-9.1-6.6-18.1-7-20-.4-1.9-1.3-3.5-2-3.5s-1-.6-.6-1.3c.3-.7-.5-1.2-1.8-1.2-1.4 0-3.4 1-4.6 2.2zM464.2 585c.4 11 .9 14.7 2.5 16.1 1.8 1.6 2 .8 2.7-7.7.4-5.3.6-11.9.4-14.6-.2-2.8-.5-5.5-.7-5.9-.2-.5-1.4-1.1-2.8-1.5-2.4-.6-2.5 0-2.1 13.6zm227.4-13.2c-1.7.6-3 1.5-2.9 1.8.1.4.9.3 1.8-.2 1.2-.6 1.2-.4 0 1s-1.5 4.8-1 12c.4 5.6.7 11.7.7 13.6 0 2 .6 3.5 1.3 3.5.7 0 1.3-.4 1.3-.9.1-.5.5-2.1.9-3.5s.9-8.4 1.1-15.6c.2-7.1.2-13 .1-12.9-.1 0-1.6.6-3.3 1.2zm390.7 1.2c.4 1.1.7 7.4.6 14 0 6.7.4 12.9 1 14 .7 1 1.8 1.5 2.6.9.9-.6 1.3-6 1.2-15.4-.2-14-.3-14.5-3.2-14.9-2.2-.4-2.7 0-2.2 1.4zM70.6 574c-.5 1.2-.5 7.1 0 13 .5 6 .9 12.1.8 13.7 0 1.5.7 3.2 1.6 3.7.9.4 1.2.3.7-.3-.6-.7-.5-1.8.2-2.5.6-.7 1.6-7.1 2.2-14.3.9-11.1.7-13.3-.9-14.3-1-.7-2.3-1.2-2.9-1.2-.5 0-1.3 1-1.7 2.2zm412-1.2c-1.1.2-2.3 1.7-2.7 3.2-.4 1.5.9 10.8 2.9 20.5 3.1 15.6 3.9 17.8 6.1 17.8 1.7 0 2.4-.8 2.2-2.5-.1-1.4-1.2-8.8-2.3-16.5-1.2-7.7-2.6-16-3.2-18.5-.7-3.1-1.6-4.3-3-4zm-427.5 1.9c-.1.8-1.1 6.7-2.2 12.9-1.1 6.3-2.1 14.1-2.3 17.2-.2 3.1-.8 6.4-1.2 7.3-.5.9-.6 2.5-.2 3.5.3 1 1.2 1.9 1.9 1.9s1.5-.4 1.8-.9c.3-.6 2.3-9.4 4.4-19.7 2.2-10.3 4-19.8 3.9-21 0-1.5-1-2.4-2.9-2.6-1.7-.1-3.1.5-3.2 1.4zm617.4 7.2c-.7 4.9-2 13.1-2.7 18.1-.8 5.1-1.1 10-.7 10.8.4.9.2 1.6-.5 1.6s-1.3.9-1.3 1.9c0 1.1.5 2.2 1 2.5.5.3 1.6.1 2.5-.3.8-.5 3.2-9.5 5.4-20 2.1-10.4 4.1-20 4.5-21.2.5-1.8-.2-2.3-3.1-2.3-3.6 0-3.8.3-5.1 8.9zM1097 576c.5 1.5 2.4 10.8 4.3 20.5 1.9 9.8 4.1 18.6 4.9 19.5.8.9 1.8 1.6 2.3 1.6.6-.1 1-2.2.9-4.9 0-2.6-1.3-12.4-2.9-21.7l-2.7-17.1c-7.2-.7-7.5-.4-6.8 2.1zm-236.5 91.4c-1.1 5.1-1.8 10-1.7 11.1.1 1-.3 2.2-.9 2.5-.7.4-1.4 2.4-1.7 4.5-.3 2.1-.8 4.7-1.2 5.7-.4 1-1.7 6.2-2.9 11.4-1.2 5.7-2.5 19.4-3.1 33.7-.6 13.3-1.4 27.6-1.8 31.8l-.7 7.6c2.7-10.8 4.2-19.1 4.9-25.4.8-6.3 2-18.3 2.6-26.7.7-9.3 2.7-21.4 5.2-31.1 2.8-11 4-18.7 3.9-24.8-.1-4.9-.3-9-.4-9.2-.2-.1-1.2 3.9-2.2 8.9zm54.1-2.9c-.8 5.6-.3 9.9 2.4 21 1.8 7.7 3.6 15.1 3.9 16.5.3 1.4 1.1 6.3 1.8 10.8.6 4.5 1.5 14 1.9 21 .4 7 1.6 17.8 2.6 24.1 1 6.3 2.4 13.2 3.1 15.3l1.3 3.8c-1-5.9-1.7-18.5-2.1-31.8-.4-13.3-1.2-24.3-1.8-24.5-.7-.1-.8-1.3-.4-2.5s-.5-8.2-2-15.6c-1.6-7.3-3.3-13.9-3.8-14.6-.5-.7-1-2.1-1.1-3.2 0-1-.4-3.6-.8-5.7s-1.5-7.8-2.4-12.7l-1.7-8.9zm-723.3 74.7c-1.5 1.5-2.8 4-2.9 5.6 0 1.6-.1 4.5-.1 6.4.1 2 2 9.7 4.5 17.2 2.4 7.5 5.5 14.8 7 16.2 1.4 1.4 2.6 2 2.6 1.3s.5-.4 1.2.6c.9 1.5 1.9 1.6 4.7.6 2-.7 3.6-2.1 3.6-3.2 0-1 .7-1.8 1.6-1.8.9 0 2.2-.9 2.8-1.9.6-1.1.7-2.5.3-3.2-.5-.8-.3-.9.7-.3q1.6.9 2.9-3.2c.8-2.3 1.9-7.6 2.5-11.8.6-4.2.7-10.7.2-14.4-.6-4.6-1.6-7.2-3.1-7.9-1.2-.7-7.5-1.5-14-2-10.6-.7-12-.5-14.5 1.8zm135.3-1.1c-3.3.4-6.7 1.5-7.6 2.4-1.2 1.1-1.6 5.3-1.6 13.4.1 8.2.7 12.9 2.3 16.1 1.2 2.4 2.1 5.2 2.1 6 0 .9 1.5 3.4 3.5 5.5 2.3 2.7 4.2 3.7 5.7 3.2 1.4-.5 2.1-.1 1.9.9-.2.8.5 1.3 1.6 1.1 1-.3 2.7-.6 3.8-.8 1-.2 1.8-1 1.6-1.8-.2-.8.3-1.3 1-1.1.8.2 2.8-3.4 4.5-7.9 1.8-4.6 3.2-8.6 3.3-8.9 0-.4.6-2.1 1.3-3.8.6-1.8 1.6-7 2-11.7.8-7.7.6-8.7-1.8-10.8-1.8-1.6-4.9-2.4-10.1-2.5-4.2-.1-10.2.2-13.5.7zm-94.8 11.2c-.7 1.2-2.2 5.7-3.2 9.9-1.1 4.2-3.5 11.3-5.4 15.9-1.8 4.5-4.7 10.8-6.3 13.9-1.7 3.2-2.6 6.2-2.1 6.8.5.5.2.9-.7.9-.9 0-2.8 3-4.2 6.6-1.4 3.7-3.4 9.9-4.4 13.7-1 3.8-1.9 7.4-1.9 7.9 0 .6 1 .7 2.2.2 1.8-.5 2-.3 1 1.1-.7.9-.2.5 1.1-.9s5.1-8.3 8.5-15.3c3.3-7 7.3-15.7 8.7-19.4 1.5-3.6 2.4-7.2 2-7.9-.3-.7-.1-1.4.5-1.6.5-.2 2.4-4.6 4.2-9.8 1.7-5.3 3.3-12.5 3.4-16.1.1-3.6-.3-6.9-1-7.4-.6-.4-1.7.3-2.4 1.5zm75.3-1.2c.4.8 0 1.7-.9 2-1 .2-1.5 2.3-1.4 5.4.1 2.7 2 10.4 4.3 17 2.3 6.7 5.7 16.2 7.8 21.3 2 5.1 5.7 13.4 8.2 18.4 2.5 5.1 5.1 9.4 5.7 9.6.6.1 1.1 1 1.1 1.9 0 .8.7 2.2 1.6 3 1.3 1.2 1.7.6 1.9-3.1.2-2.6-.6-7.6-1.7-11-1.2-3.5-3.3-8.7-4.7-11.5-1.5-2.8-2.7-5.4-2.8-5.7 0-.3-2-4.6-4.3-9.5s-4.8-10.4-5.6-12.1c-.7-1.7-1.4-3.5-1.5-3.8 0-.4-1.1-4.6-2.3-9.5-1.2-4.9-3.1-10.1-4.2-11.5-1.1-1.4-1.6-1.8-1.2-.9zM209.4 958c-.4.7-.1 2.2.6 3.2.7 1.1 1.9 1.5 2.8 1 1-.6 1.2-.5.7.3-.5.7.7 4.4 2.7 8.2l3.7 7c.2-11.2-.4-12.7-3.9-16.4-2.3-2.5-4.5-4.5-5-4.5s-1.2.5-1.6 1.2zm117.7.4c-1.6.9-2.6 2.3-2.2 3.1.4.9-.2 1.6-1.2 1.6-1.1 0-2.2 1.4-2.5 3.1-.3 1.6-.4 4.4-.3 6 .3 2.8.5 2.7 2.5-1.1 1.2-2.3 2.2-4.5 2.2-4.8 0-.4 1.4-1.8 3.2-3.2 1.7-1.4 3.1-3.4 3.1-4.4 0-1.1-.4-1.9-.9-1.8-.5 0-2.3.7-3.9 1.5zM199 971c-.3.5 0 1 .5 1s-.1.7-1.3 1.6c-1.3 1-2.4 3.8-2.7 7.3-.3 3.2-1.1 7.2-1.8 8.9-.7 1.7-1.3 3.5-1.3 3.8 0 .4-.7 2.4-1.5 4.5s-1.1 5.1-.7 6.6c.4 1.6 1.3 2.9 2 2.9s3.2 2 5.7 4.4c2.4 2.5 5 4.2 5.7 3.8.7-.3 1.3-.2 1.3.4 0 .5 1.5 1.9 3.5 3.1 1.9 1.2 4 1.8 4.6 1.3.7-.5.8-.4.4.3-.5.7.3 2.4 1.6 3.8 2.3 2.3 2.8 2.4 4.5.7 1.1-1.1 2.6-5.6 3.4-10.2 1.1-6.2 1.1-9.6-.1-14-.8-3.1-1.8-6.8-2.1-8.2-.3-1.4-1.1-4.4-1.8-6.7s-1.9-4.1-2.6-4.1c-.7 0-1.3-.9-1.3-1.9 0-1.1-1.6-3.8-3.6-6.1-2.7-3-4.8-4.1-7.8-4.2-2.3 0-4.4.4-4.6 1zm131.2 2c-2.7 2.8-3.1 3.8-1.8 5.2 1.3 1.4 1.2 1.5-.6.9q-2.2-.7-2.2 1.2c0 1-.4 1.9-1 1.8-.5 0-1.6 1.4-2.5 3.2-.9 1.8-1.3 3.8-1 4.5.4.7.2 1.3-.3 1.3-.5-.1-1.7 3.8-2.7 8.5-1.6 7.4-1.6 9.9 0 17.5 1.3 6.6 2.3 9 4 9.2 1.6.3 2-.2 1.3-1.7s-.4-2 .9-1.6c1.1.2 5.4-1.9 9.5-4.8 4.2-2.8 9.8-7.2 12.4-9.8 4.7-4.5 4.8-4.8 3.3-9.4-.9-2.6-1.7-5.3-1.8-6-.2-.7-1.2-5.3-2.3-10.2-1.2-5.4-3-9.7-4.5-11.1-1.9-1.6-2.8-1.8-3.1-.6-.5 1.2-.6 1.2-.7 0 0-.9-.9-1.6-1.8-1.6-1 0-3.3 1.5-5.1 3.5zm477.5 51.1c.3 10.8.8 20.6 1.1 21.6.3 1.1.9 2.9 1.3 4.1.7 1.9 2.5 2.3 11 2.3 8.4 0 10.4-.4 11.4-2.3 1-1.7 1.3-1.8 1.4-.3 0 1.1.9-.6 1.9-3.8 1-3.1 1.7-9.7 1.6-14.6-.1-4.9.2-9.6.7-10.5.4-.9.3-2.6-.4-3.8-1-1.9-1.3-1.7-1.9 1.6-.5 2.1-1.5 6.4-2.4 9.5-1.5 5.4-1.8 5.8-6.6 6.1-2.8.2-6.2.1-7.6-.2-1.4-.3-3.2-2.1-4.1-3.9-.9-1.8-2-6.2-2.6-9.8-.5-3.5-1.3-6.7-1.9-6.9-.5-.3-.6-1.1-.3-1.8.4-.7.1-1.3-.6-1.3s-1-.4-.7-.9c.3-.5 0-1.8-.7-2.9-.8-1.2-1 5-.6 17.8zm160.4-14.9c-1 2.2-2.6 8.1-3.4 13-.9 4.9-2.4 9.3-3.4 9.8-.9.6-1.5 1.4-1.2 2 .3.5-1.8.8-4.7.7-2.9-.1-7-1.1-9.1-2.2-2.1-1.1-3-2-1.9-2.1q1.9 0 .4-.9c-.8-.5-1.8-4.1-2.3-7.9-.5-3.9-1.4-7.9-2-8.9-.7-1.2-1.1 1.8-1.1 7.6.1 5.2.6 13.8 1.2 19.1.9 6.5 1.9 10 3.4 11.1 1.6 1.2 5.3 1.5 13.1 1.1 9-.5 10.9-.9 11.5-2.9.5-1.3 1.1-11.6 1.6-23 .4-11.4.5-20.7.3-20.7-.3 0-1.3 1.9-2.4 4.2zm-775.6 14.3c.5.3.1 1.6-1 2.8-1 1.3-2 2.8-2.2 3.5-.2.7-1.6 2.7-3.1 4.4-1.6 1.8-2.5 3.8-2.1 4.5.5.7.3.9-.3.4s-3.2 1.8-5.8 5.1c-3.7 4.7-4.4 6.3-3.2 7.8 1.2 1.4 1.1 1.6-.1.9-.9-.4-2.7 0-4.1 1.1-2.5 1.8-2.5 1.9.9 5.1 1.9 1.8 5.5 3.8 8 4.6 2.4.7 6 1.2 7.9.9 1.9-.3 3.5 0 3.5.5s1.9 1.2 4.1 1.4c2.8.4 4.7-.1 5.8-1.5.9-1.2 1.6-3.3 1.5-4.7 0-1.4 1.4-6.1 3.2-10.5 1.8-4.3 3.2-9.3 3.2-11.1 0-1.7-.4-3.2-1-3.2-.5 0-.9-1.1-.9-2.5s.4-2.5.9-2.5c.6 0 1-.5 1-1s-1.7-1.9-3.8-3.2c-2.1-1.2-6-2.5-8.6-2.8-2.6-.3-4.3-.3-3.8 0zm146.9.8c-1 1-2.6 1.9-3.7 2.1-1 .2-2.4.9-3.1 1.6-.9.7-.8 1.7.3 3 1 1.3 1.1 2.2.3 2.6-.7.4-1.3 2.7-1.3 5.1 0 2.5 1.5 7.8 3.2 11.8 1.8 4 3.2 8.7 3.2 10.5-.1 1.7.8 3.8 1.8 4.7 1.1.9 2.4 1.4 3 1 .5-.3 5.1-1.1 10.1-1.9 5.1-.7 10.9-2.2 13-3.2 2.1-1.1 4.1-2.8 4.5-3.8.3-1.1-2.3-5.7-5.9-10.5-3.6-4.7-7.4-9.3-8.6-10.2-1.1-.9-2.1-2.3-2.2-3-.1-.7-1-2-2-2.8-1.1-.8-2-2-2.2-2.7-.2-.7-.7-2-1.1-2.8-.5-.8-2.4-1.9-4.2-2.3-2-.5-3.9-.2-5.1.8zm-16 13.8c-.9 3.5-2.2 6.6-2.9 7-.7.3-1.3 2.5-1.3 4.7 0 2.3.4 4.6 1 5.2.5.6 1.1 2.3 1.2 3.9.2 1.5.6 4 1 5.5.4 1.8 2.1 3.4 4.5 4.2 2.1.7 4.3 1 5 .6.7-.3 1.3-2.2 1.3-4.1 0-1.9-.5-4.1-1.2-4.8-.7-.7-1.7-5.8-2.4-11.4-.6-5.6-1.9-11.8-2.9-13.7l-1.7-3.5zm-110.7-.9c-.8 2.2-1.4 6.4-1.5 9.2 0 2.8-.8 7.9-1.8 11.4s-1.8 7.3-1.6 8.5c.1 1.1.5 2.4.9 2.8.3.4 2.3.2 4.4-.3 2.1-.6 3.9-1.5 3.9-2.2.1-.6.6-2 1.1-3.1.5-1 .7-2.7.4-3.8-.3-1 .3-2.6 1.2-3.5.9-.9 1.7-3.6 1.7-6 0-2.5-.4-4.7-1-4.9-.5-.3-1.5-3.2-2.3-6.4-.8-3.2-2-5.9-2.7-5.9-.7 0-1.9 1.9-2.7 4.2zm574.2 19.5c-1.1.4-1.8 1.2-1.6 1.9.1.6.8.8 1.5.5.7-.4 1.3-.1 1.3.6s2.4 2.4 5.4 3.7c2.9 1.4 11.1 3.3 18.1 4.4 7 1.1 14.7 2 17.1 2.1 2.5.1 5.6.2 7 .2 2.3-.1 2.4-.3.7-2.2-1.8-1.9-1.7-2 .4-1 2.3 1 2.3.9.4-2.7-1.1-2.1-1.6-4.4-1.1-5.1.5-.7-.2-.8-2-.3-1.5.5-2.6.5-2.3 0 .3-.6-3.3-1.4-7.9-1.9-4.7-.6-14.5-.9-21.9-.9-7.3.1-14.1.4-15.1.7zm165.5.3c-4.4.5-8.5 1.4-9.3 2.1-.8.7-1.5 3.3-1.7 5.7l-.2 4.4c16.7-.1 26.4-1.2 32.4-2.4 5.9-1.2 12.6-3.3 14.9-4.6 2.3-1.4 3.9-3.2 3.7-4.1-.3-1.1-4.7-1.6-16.2-1.7-8.7-.1-19.3.2-23.6.6z" />
    <g id="pantorrillas"><path fill="#3f4140" d="M184.6 755.3c.7.4 1.5 3.7 1.9 7.4.5 3.6 3.1 19.2 5.8 34.6 2.8 15.4 7 39.7 9.4 54 2.3 14.3 5.2 32.9 6.3 41.3 1.1 8.4 2.3 24.4 2.8 35.6.6 15 .5 20.5-.7 21.2-.9.7-2.4-1.1-4.1-5-1.5-3.4-4.5-11.8-6.9-18.8-2.3-7-5.3-17-6.8-22.2-1.4-5.3-3.2-13-3.9-17.2-.7-4.2-2.2-14.4-3.2-22.8-1.1-8.4-2.6-25.6-3.4-38.2-1.2-17.5-1.2-27.1 0-41.2.8-10.2 1.5-20.9 1.6-23.9 0-3.1.6-5.2 1.2-4.8zm635.2-.5c.3 0 .2 5.8-.3 13-.4 7.1-1.2 39.3-1.7 71.4-.7 45.5-1.3 59.2-2.6 62-1 1.9-3.2 4.2-4.9 5-2.6 1.3-3.8 1.3-6.4 0-1.7-.8-3.8-3.1-4.5-5-.8-2-2.5-9-3.9-15.6-1.6-7.9-2.8-20-3.3-34.9-.5-15.3-.2-27.1.9-35.6.9-7 2.7-16.6 4-21.3 1.3-4.7 3.6-11 5.1-14 1.4-2.9 5.9-9.8 9.8-15.1 3.9-5.4 7.5-9.9 7.8-9.9zm137.7-.1c.4 0 4 4.5 7.9 9.9 3.9 5.4 8.4 12.4 10.1 15.5 1.6 3.2 4.1 10.3 5.5 15.9 1.5 5.6 3.3 16.5 4.1 24.2.9 8.5 1.1 21.1.6 32.4-.5 10.1-1.7 23-2.8 28.6-1 5.5-2.6 13-3.6 16.5-1.2 4.3-2.8 6.9-5 8.2-2.7 1.6-3.9 1.7-6.5.3-1.7-.8-4.2-3.1-5.4-5-1.9-3-2.2-6.3-1.8-27 .2-12.9-.2-41.8-1-64.2-.7-22.4-1.7-43.9-2.1-48-.5-4-.5-7.3 0-7.3zM355.9 756c.6 0 1.7 11.3 2.6 25.1 1.1 18.3 1.2 30.2.2 44.1-.7 10.5-1.9 24.5-2.7 31.2-.7 6.6-2.2 17.5-3.2 24.1-1.1 6.7-3 16.4-4.4 21.6-1.3 5.3-4.8 16.4-7.7 24.8-2.9 8.4-6 16.8-7 18.7-1 2-2.5 3.5-3.4 3.5-1.2 0-1.4-4.6-.7-21.2.5-11.8 2.1-29.6 3.5-39.8 1.4-10.1 4.2-28.4 6.3-40.6 2.1-12.2 5.8-33.4 8.2-47 2.4-13.7 5-29 5.8-34 .7-5.1 1.4-9.5 1.4-9.9 0-.3.5-.6 1.1-.6zm472.1 3.2c1 2.1 5.2 11.2 9.3 20.3 4.1 9.1 8.5 20.5 9.7 25.4 1.2 4.9 3 14.6 3.9 21.6 1 7 2.2 18.2 2.6 24.8.5 7.4.3 15.3-.6 20.3-.8 4.6-2.9 11.3-4.6 15-1.7 3.6-3.8 6.6-4.7 6.6-.9 0-1.2.4-.7.9.5.6-.6 3-2.5 5.3-1.9 2.4-4.9 5-6.6 5.9-1.8.8-3.9 1.3-4.8 1.1-.9-.3-2.1-2.8-2.8-5.6-.9-3.4-.9-13 .1-29.5.8-14.5 1-43 .6-70.2-.7-40.3-.5-45.3 1.1-41.9zm122.6-1.1c.4.4.7 33.2.7 73.1 0 67.7-.1 72.5-2.3 74.5-2.1 2-2.4 2-5.7-.5-1.9-1.5-5.5-5.5-8.1-8.9-2.6-3.4-6.3-10.8-8.2-16.4-3.3-9.7-3.4-11-2.7-27.3.4-9.5 1.7-22.9 2.8-29.9 1.1-7 3.2-16.7 4.6-21.6 1.5-4.9 5.1-14 8.1-20.3 2.9-6.3 6.4-14.1 7.8-17.4 1.3-3.3 2.7-5.7 3-5.3zm-772.4 27.1c.5 0 .8 1.3.5 2.9-.3 1.6-.9 14-1.4 27.6-.7 22-.5 26.8 2 42.6 1.6 9.8 3.7 22.1 4.7 27.3 1.1 5.2 4.5 20.1 7.7 33 3.1 13 6 27.8 6.3 33.1.4 7-.1 11.2-1.7 15.8-1.3 3.5-3.1 6.6-4.2 6.7-1.5.3-1.8-1-1.4-7.6.3-6.1-.8-12.9-4.9-29.5-2.9-11.9-6.4-27.4-7.7-34.3-1.4-7-3.2-21.6-3.9-32.4-.8-10.9-1.1-30.9-.7-44.5.4-13.6 1.3-28.4 2.1-32.7.9-4.4 2-8 2.6-8zm184.1 0c.8 0 2 4.2 2.7 9.2.7 5.1 1.6 18.7 2 30.2.4 11.5.2 31-.6 43.2-.8 12.2-2.5 27.7-3.9 34.3-1.4 6.7-4.8 21.8-7.7 33.7-3.5 14.8-5.1 24.5-5.1 30.8 0 5.3-.6 9.2-1.3 9.2-.7 0-2.2-2.4-3.3-5.4-1.1-3-2.3-8.5-2.7-12.4-.4-3.8 0-10.7.8-15.2.9-4.6 3.9-17.4 6.6-28.6 2.8-11.2 6.9-30.1 9.2-41.9 3.7-19.9 4-23.6 3.9-46.4 0-13.6-.5-28.4-1-32.7-.6-5.4-.5-8 .4-8zm-50.1 15.4 6.1 11.7c3.3 6.4 7.5 15 9.2 19 1.9 4.3 3.1 9.7 3.1 13.3 0 3.3-1.4 21.5-3.1 40.4-1.8 18.8-3.6 38-4.9 50.8l-4.2-17.2c-2.4-9.4-6.4-23.4-8.9-31.1-4.5-13.8-4.5-14.2-4-30.5.4-9.1 2-25.5 3.7-36.4zm-84.3 1.1c.5 0 2.1 9 3.7 20 1.5 11 3 27.1 3.4 35.9.6 15.8.6 15.9-4.5 31.1-2.8 8.4-6.6 22.1-8.5 30.5-1.9 8.4-3.7 15-4 14.6-.3-.3-2.3-19.2-4.4-41.9-2.1-22.7-3.7-44.8-3.5-49 .4-6.4 1.8-10.4 8.7-24.4 4.5-9.2 8.6-16.8 9.1-16.8zM808 916c.9 0 3 .7 4.8 1.6 1.8.9 3.5 2.3 3.8 3.2.4.9 1.2 7.7 1.9 15.2.7 7.6 1.8 25.7 2.6 40.4s1 30.7.5 35.6c-.5 4.8-1.3 10-1.8 11.4-.8 2-1.3 1.2-2.4-3.8-.7-3.5-3.4-21.5-5.9-40-2.5-18.6-5.9-38.7-7.6-44.8-1.8-6.1-3.3-12-3.4-13-.1-1 1.2-2.7 2.9-3.8 1.7-1.1 3.7-2 4.6-2zm161.4.1c.9 0 3 1.2 8 5.6l-3.2 10.8c-1.7 6-4.9 24-7 40.1-2.2 16-4.8 34.3-5.9 40.6-1.1 6.3-2.2 11.7-2.5 12.1-.2.3-.9-1.1-1.5-3.2-.5-2.1-.9-14.9-.8-28.6 0-13.6.8-34.5 1.6-46.3.9-11.9 2.2-23.3 3.1-25.3.8-2.1 2.7-4.2 4.1-4.7 1.4-.6 3.2-1 4.1-1.1zm-137.6 2.5c1.8 0 4.7 1.3 9.8 5.7l-1.4 19c-.8 10.5-2.8 26.3-4.5 35-1.7 8.7-3.8 22.4-4.7 30.5-1.4 12.6-1.8 13.9-2.6 9.5-.5-2.8-1.3-24.8-1.7-48.9-.6-30.7-.5-44.9.5-47.3 1-2.6 2.3-3.5 4.6-3.5zm114.4.2c3.5.4 3.9.9 4.8 6.8.6 3.5.7 21.5.3 40-.4 18.5-1.1 39.2-1.6 46-.5 6.7-1.1 12.1-1.2 12-.1-.1-.9-6.2-1.7-13.5-.8-7.4-2.8-20.5-4.5-29.3-1.7-8.7-3.6-21-4.3-27.3-.7-6.3-1.4-15.5-1.5-20.6-.2-8.2 0-9.4 2.8-11.8 2-1.7 4.4-2.5 6.9-2.3z" /></g>
    <g id="gluteo"><path fill="#3f4140" d="M820.4 451.4c-2.1 1-5 3.4-6.5 5.5-1.4 2-4.4 7.1-6.5 11.3-2.1 4.2-4.8 11.1-6 15.3-1.1 4.2-1.9 7.7-1.7 7.9.2.2 8.1-5.1 17.6-11.8 15.1-10.7 18.6-12.6 29.8-16.1l12.7-4c-4.9-3.7-9.5-5.6-13.3-6.7-3.9-1.1-10.4-2.2-14.6-2.5-4.8-.4-9.1.1-11.5 1.1zm118.2-.3c-2.8.7-7.6 1.9-10.6 2.8-3.1.9-6.5 2.6-7.6 3.8-2 2.1-1.9 2.3 1.7 3.1 2.1.4 8.4 2.6 14 4.7 5.5 2.1 14.1 6.8 19 10.4 4.9 3.5 11.9 8.5 15.6 11.1l6.7 4.7c-.7-7.4-3.4-14.8-6.5-21.4-3.1-6.5-7.3-13.5-9.4-15.6-3.1-2.9-5.2-3.8-10.8-4.2-3.9-.3-9.3-.1-12.1.6zm-83.5 16c-5.1 1.8-12.7 4.9-16.9 7.1-4.2 2.1-12.4 7.1-18.3 11-6.4 4.3-12.8 9.7-15.7 13.5-2.7 3.5-5.5 8.6-6.3 11.4-.9 3.7-.9 8 .1 15.3 1.1 7.7 2.9 13.1 7.4 22.2 4.7 9.4 8.1 14.3 15.6 21.9 6.8 6.9 10.5 9.8 12.8 9.9 1.7 0 7.6 1.4 13 3.2 5.4 1.7 12.1 3.1 14.9 3.1 2.8 0 7.1-.8 9.6-1.9 2.4-1 5-3 5.7-4.4.7-1.4 1.2-6.1 1.2-10.5s1.6-14.5 3.4-22.5c3-12.6 3.5-17.6 3.5-35.6.1-15.4-.3-22.2-1.7-25.4-1-2.5-4.1-7.7-7-11.7-2.9-4.2-6.6-7.8-8.6-8.5-2.7-.9-5.6-.5-12.7 1.9zm53.9-2.4c-.8.3-4.1 4.1-7.2 8.4-3 4.3-6.2 9.5-7 11.6-.8 2.1-2 7.8-2.7 12.7-.8 6.1-.8 13.8.2 24.2.8 8.4 2.6 19.8 4 25.4 1.3 5.6 2.5 13.6 2.4 17.8 0 4.2.4 9.3 1 11.4.5 2.3 2.8 5 5.3 6.7 2.9 1.9 6.2 2.9 9.8 2.9 2.9 0 10.1-1.4 15.9-3.1 5.7-1.7 11.9-3.4 13.6-3.8 1.8-.3 6-3.1 9.5-6.1 3.4-3 9.6-10.6 13.7-16.9 4.5-7 8.4-14.9 10-20.3 1.5-5 2.7-12.6 2.7-17.2q0-8.3-2.4-13.2c-1.3-2.8-4.6-7.2-7.4-9.9-2.8-2.7-9.3-7.8-14.3-11.3-5.1-3.4-11.4-7.3-14-8.7-2.6-1.3-9.2-4.2-14.6-6.3-5.4-2.2-11.4-4.2-13.4-4.4-1.9-.2-4.2-.2-5.1.1z" /></g>
    <g id="femoral"><path fill="#3f4140" d="M815.1 572.5c.8.4 3.6 3.4 6.2 6.6 2.5 3.3 6.1 9.2 11.3 20l-1.3 33c-.7 18.2-1.6 37.9-2.1 43.9-.4 5.9-2 16.5-3.7 23.5-1.6 6.9-5.1 19.2-7.6 27.3-2.6 8-6.5 18.9-8.6 24.1-2.2 5.3-5.5 12.1-7.5 15.3-1.9 3.1-3.6 5.4-3.6 5 0-.3.9-7.2 1.9-15.2 1-8 3-22.3 4.5-31.8 2.2-14.7 2.7-25.4 3.2-74.9.4-33.7 1.3-61.2 2.1-65.9.8-4.4 1.9-8.8 2.5-9.8.6-.9 1.8-1.4 2.7-1.1zm148.4-.5c.6.2 1.1 1 1 1.7 0 .7.6 1.5 1.3 1.9.8.3 2 5.8 2.6 12 .7 6.3 1.3 31.5 1.3 56 .1 24.4.6 51.6 1.3 60.3.6 8.7 2 21 3.1 27.3 1 6.3 2.5 16.9 3.3 23.5.7 6.7 1.6 13.2 2.6 17.2l-2.1-2.6c-1.2-1.4-4.3-7.1-6.9-12.7-2.7-5.6-7.2-17.3-10-26s-6.6-21.6-8.3-28.6c-2.1-8.4-3.6-19.4-4.5-32.4-.7-10.8-1.7-29.4-2.3-41.3-.5-11.9-.9-23.3-.9-25.4.1-2.1 1.8-7.2 3.8-11.4 2-4.2 5.9-10.4 8.7-13.8 2.7-3.3 5.4-5.9 6-5.7zm-120.3 26.4 2.1 3.5c1.1 1.9 3.3 6 4.8 8.9 1.5 3 3.9 11 5.4 17.8 1.9 8.7 2.4 14.7 1.9 20-.4 4.2-2.1 12.2-3.9 17.8-1.8 5.6-4.3 17-5.7 25.4-1.4 8.4-3.7 24.4-5.1 35.6-1.4 11.2-3.3 24.5-4.2 29.6-.8 5.1-2 9.2-2.5 9.2s-1.5-3-2.1-6.7c-.7-3.7-1.6-12.7-2-20-.5-7.4-.2-27.7.6-45.1.8-17.5 2.5-43.8 3.9-58.5 1.6-16.8 3.3-28.7 4.7-32.1zm91.3-.6 2.2 5.8c1.4 3.6 2.9 14.4 4.2 29.2 1.2 12.9 2.7 32.1 3.3 42.5.7 10.5 1.3 31.1 1.3 45.8 0 14.7-.6 30.7-1.3 35.6-.8 4.9-1.6 9.1-1.9 9.5-.3.3-.9.3-1.3 0-.3-.4-1.7-8.1-3-17.2-1.3-9-3.4-23.6-4.5-32.4-1.1-8.7-3.2-21.8-4.5-29.2-1.4-7.3-3.9-18.2-5.7-24.1-2-6.8-3.2-13.9-3.2-19.1 0-4.5 1.2-13.1 2.6-19 1.4-6 4.7-14.6 7.2-19.1z" /></g>
    <g id="aductores"><path fill="#3f4140" d="M206.2 482.2c4.3 4.2 11 11.9 14.9 17.1 3.9 5.3 10.7 16.4 15.1 24.8 4.3 8.4 9.9 21.3 12.3 28.6 2.4 7.3 4.7 15.1 5.1 17.2.6 2.7-.2 5.5-2.7 10.1-2.4 4.3-4.3 6.4-6 6.4-2.1 0-3.8-3.6-10.5-22.3-4.4-12.2-10.9-29.6-14.5-38.7-3.6-9.1-9.9-23.7-13.9-32.4-4.1-8.7-7.5-16.5-7.5-17.2 0-.7 3.5 2.2 7.7 6.4zm135.4-7c.2 0 0 .7-.5 1.6-.5.9-1 2.6-1.2 3.8-.2 1.2-2.7 6.8-5.5 12.4-2.8 5.6-8.4 18.6-12.5 28.9-4.1 10.3-11.1 29-15.6 41.5-4.4 12.5-8.8 22.9-9.7 23.2-.8.2-2.5-.3-3.7-1.2-1.1-.8-3.1-4-4.4-7-2.3-5.3-2.3-5.4 1-17.8 1.9-6.8 5.2-16.6 7.5-21.9 2.2-5.2 5.9-12.9 8.2-17.1 2.3-4.2 5.7-9.9 7.4-12.7 1.7-2.8 5.1-7.7 7.5-10.8 2.3-3.2 8.1-9.6 12.7-14.3 4.7-4.7 8.6-8.6 8.8-8.6zm-82.8 102.4.4 6.9c.3 3.8-.5 15.2-1.6 25.4-1.2 10.1-2.8 21.8-3.7 26-1.5 6.9-1.7 7.3-2.4 3.8-.5-2.1-2.3-12.6-7.5-43.2zm22.9.5c.5 0 3.4 3.3 6.3 7.4 2.9 4 6 8.4 6.7 9.8 1.2 2 .6 7.5-2.3 24.8-2.1 12.2-4.1 22.5-4.3 22.8-.3.4-.8-1-1.2-3.1-.4-2.1-1.6-9.8-2.6-17.2-1.1-7.3-2.3-20.3-2.8-28.9-.4-8.5-.4-15.6.2-15.6zm595.9 14.7-.1 11.4c-.2 8.5-1.4 16.4-4.9 30.5-2.6 10.5-5.3 19.9-5.9 21q-1.2 1.8-.3-2c.5-2 .9-8.1.9-13.3 0-6.2-1-12.9-2.9-19.1-1.6-5.2-4.6-12.8-6.6-16.8s-4.3-7.6-5-7.9c-.7-.4-1.2-1.2-1.2-1.9s2.1-1.5 4.7-1.8c2.7-.2 8.5-.3 21.3-.1zm35.5-.2c6.3.5 11.8 1.1 12.1 1.3.3.3-1.5 4.1-4 8.6-2.6 4.4-6 12.1-7.6 16.9-2.3 7.1-2.9 11.7-2.9 22.5 0 7.4-.2 13.4-.3 13.3-.1-.1-2-7-4.1-15.4-2.1-8.4-4.7-21.3-5.9-28.6-1.6-10.8-1.7-13.9-.5-16.4 1.6-3 1.8-3 13.2-2.2z" /></g>
    <g id="cuadriceps"><path fill="#3f4140" d="M199.3 498.1c1.8 3.8 6.7 15 10.9 24.7 4.2 9.8 10.5 25.3 13.9 34.4 3.5 9 8.5 24.2 11.2 33.6 2.8 9.5 6.3 23.2 7.8 30.5 2.1 10.2 2.8 17.9 2.9 32.4.1 12.3-.5 21.8-3.5 34.3l-1.6-10.8c-.9-5.9-3.9-21.1-6.7-33.6-2.8-12.6-6.9-30.4-9-39.4-2.2-9.1-7.4-29.7-11.6-45.8-4.2-16-9.9-37.3-12.7-47.3-2.7-10-4.9-18.5-4.9-19.1.1-.5 1.5 2.2 3.3 6.1zm144.9-6.4c.2 0 .2 1-.1 2.2-.3 1.3-3.4 13.1-7 26.4-3.5 13.3-7 25.9-7.6 28-.7 2.1-4.7 17.5-8.9 34.3-4.2 16.7-9.6 39.3-12 50.2-2.5 10.8-5.7 25.8-7.1 33.3-1.5 7.5-2.7 15.5-2.7 17.8 0 2.9-.3 3.6-1.1 2.2-.6-1-1.8-5.9-2.7-10.8-1-5.7-1.3-15-.9-26 .5-12.1 1.7-21.7 4.1-32.4 1.9-8.4 5.6-22.4 8.3-31.2 2.7-8.7 7.5-22.7 10.8-31.1 3.2-8.4 10.5-26 16.2-39.1 5.6-13.1 10.5-23.8 10.7-23.8zm9.9.2 2.6 4.7c1.5 2.6 4.1 8.4 5.9 12.9 1.8 4.5 4.5 13.1 5.9 19.1 1.4 5.9 3.2 16.1 4 22.5.9 8.4.9 15.1 0 23.5-.8 6.5-2.8 18.1-4.4 25.8-1.6 7.6-7.1 29.9-12.1 49.5s-10.8 40.7-12.8 47c-2.1 6.3-5 14-6.6 17.1-1.5 3.1-3.8 6.2-5.1 7-1.8 1-2.7.8-4.2-1.2-1-1.4-2.5-4.8-3.2-7.6-.8-2.8-2.2-10-3.1-15.9-1-6-2.1-20-2.6-31.1-.4-12.2-.2-27.3.7-37.5.8-9.5 2.9-23.8 4.7-31.8 1.8-8 4.9-20.3 6.9-27.3s7.1-23.3 11.3-36.2c4.2-13 8.7-27.3 9.9-32zM186 493c.6 0 1.8 3 2.5 6.6.8 3.7 5.1 18.1 9.7 32.1 4.5 14 10.4 33.4 13.2 43.2 2.7 9.8 6.1 24.4 7.6 32.4 2.1 12 2.6 19.9 2.6 44.5.1 22.2-.5 33.4-2.1 43.8-1.2 7.7-3.2 16.6-4.4 19.7-1.4 3.8-3 5.9-4.6 6.1-1.8.3-3.3-1-5.3-4.4-1.5-2.7-3.9-8-5.3-11.9-1.4-3.8-4.3-13-6.4-20.3-2.1-7.3-6.4-23.6-9.6-36.2-3.2-12.6-7.5-30-9.5-38.8-2.1-8.7-4.6-22.1-5.8-29.8-1.3-9.2-1.8-17.3-1.3-23.5.5-5.3 1.9-15 3.3-21.6 1.3-6.7 3.4-15.2 4.8-19.1 1.3-3.8 4-10.5 6-14.9 1.9-4.4 4-7.9 4.6-7.9zm601.1 63.5c.9 1 3.5 7.3 5.8 14 2.2 6.6 4.9 17.7 5.9 24.7s1.9 19.5 1.9 27.7-.5 20.2-1.2 26.7c-.7 6.4-1.5 16.8-1.8 23.1-.4 6.3-.1 16 .5 21.6.6 5.6.9 10.5.6 10.8-.3.4-1.3-2.5-2.4-6.3-1-3.9-2.8-11.9-3.9-17.8s-2.8-20.2-3.8-31.8c-1-11.5-2.5-33.8-3.3-49.5-.7-15.7-.9-31.8-.4-35.6.5-3.8.8-7.6.6-8.3-.2-.7.5-.4 1.5.7zm204.5-1.3c.9 0 1 10.5.5 33.4-.4 18.3-1.6 43-2.6 54.9-1.1 11.9-2.5 25.9-3.3 31.1-.7 5.3-2.5 14.1-4 19.7-1.4 5.6-2.8 10.5-3.1 10.8-.3.4-.2-7 .3-16.5.5-11.8.1-24.4-1.4-40.6-1.2-14.2-1.8-27.6-1.3-33.7.5-5.6 1.7-15.6 2.7-22.2 1-6.7 3.5-16.7 5.5-22.3 2-5.6 4-11.1 4.5-12.4.4-1.2 1.4-2.2 2.2-2.2zm-616.9 44.6c.2.3.4 2.2.5 4.3.1 2.1-.5 13.3-1.4 24.8-.8 11.5-2.6 27.4-3.9 35.3-1.4 7.8-3.9 17.8-5.5 22.2-1.7 4.4-6 15.1-9.6 23.8-3.6 8.8-7 16.5-7.6 17.2-.7.8-1.7.1-2.7-1.9-1-2.1-1.3-6-.8-11.5.5-5 3.3-15.5 7.2-26.6 3.6-10.2 8.1-25 10.1-33.1 2-8 4.9-20.5 6.3-27.6 1.5-7.2 2.8-14.2 2.9-15.6.1-1.4 1.1-4.7 2.2-7.2 1-2.5 2.1-4.4 2.3-4.1zm-207.2 3.1c1 1.4 2.1 4.5 2.5 6.9.4 2.5 1.5 9.1 2.6 14.7 1 5.5 4.2 19.3 7 30.5 2.9 11.1 7.7 27.4 10.8 36.2 3.1 8.7 6 19.3 6.4 23.5.5 4.9.2 8.7-.8 10.8-1.4 2.7-1.8 2.9-3.3 1.2-.9-1-3.1-6.2-5-11.4-1.8-5.2-5-12.8-7.1-16.8-2.1-4-5.2-12.6-6.9-19.1-1.8-6.5-4-19.2-5.1-28.3-1-9-2.4-23.3-3-31.7-.6-8.4-.8-16.1-.5-17.2.6-1.5 1-1.4 2.4.7zm61 43.2c1.1 2.8 3 8.5 4.2 12.7 1.3 4.2 3 13 3.9 19.7 1.2 9.7 1.2 15-.1 27.3-.9 8.4-1.7 17.2-1.8 19.5 0 2.8-.9 4.8-2.4 5.7-1.9 1.2-2.9.7-10-7.4l.8-14c.4-7.7 1.3-18.6 2-24.2.6-5.5 1.2-17.8 1.3-27.3.2-16.8.2-17 2.1-12zm84.9-5 .9 23.4c.4 12.9 1.4 27.8 2.1 33 .8 5.3 1.4 12.8 1.4 16.9.1 4-.7 8.8-1.7 10.8-.9 1.9-2.7 4.2-3.8 5-1.1.9-3 1.3-4.3 1-1.8-.5-2.4-2.7-3.1-12.4-.6-6.5-1.3-16.6-1.8-22.6-.5-7.4-.1-14.4 1.3-22.5 1.1-6.5 3.6-16.4 5.5-22.2z" /></g>
    <g id="antebrazo"><path fill="#3f4140" d="M110.6 347.1c1.3.3 2.4 2.4 3 5.5.5 2.8.6 10.5.3 17.1-.4 6.7-1.6 17-2.7 22.9-1.3 7.4-5.8 20.5-14.3 41.9-6.8 17.2-15.1 38-18.3 46.4-3.3 8.4-7.1 17.1-8.5 19.4-1.4 2.3-3.1 3.8-3.8 3.5-.7-.4-.9-3.4-.5-7.3.4-3.7 4.4-25.3 8.9-48s8.2-44.1 8.3-47.6c.1-3.5.8-9.2 1.6-12.7s4.3-11.8 7.8-18.3c3.5-6.6 8.6-14.5 11.3-17.6 2.7-3 5.8-5.4 6.9-5.2zm318.9-.3c.5 0 2.5 1.3 4.6 2.9 2 1.6 5.1 5.2 6.9 8 1.7 2.8 5 8.5 7.3 12.7 2.3 4.2 3.8 8 3.4 8.6-.4.5-.1.9.7.9.8 0 2 1.9 2.7 4.1.8 2.3 1.6 8.5 2 13.7.4 5.2 2.7 20.1 5.1 33 2.5 13 5.9 30.1 7.6 38.1 1.7 8.1 3.7 18.8 4.4 23.9.7 5 1 9.8.6 10.5-.3.7-1.3.8-2.1.3-.9-.6-3.7-5.6-6.3-11.1-2.6-5.6-6.4-15.1-8.5-21-2-6-8.9-23.7-15.2-39.4-6.3-15.7-12.1-30.9-12.8-33.7-.7-2.8-2-12.2-2.8-20.9-.8-8.8-1.1-18.6-.6-22 .5-3.3 1.2-6.6 1.5-7.3.3-.7 1-1.2 1.5-1.3zm296.3 17.9 3.5 4c1.9 2.3 4.8 5.6 6.4 7.3 1.6 1.8 3.3 4.7 3.7 6.4.3 1.8.3 5.5-.1 8.3-.5 2.8-2.1 7.6-3.7 10.7-1.6 3.2-3.4 5.9-4.1 6.1-.7.3-2-1.1-2.9-3.1-.9-2-1.8-11.2-2.2-21.6zm326 .3c.1.2-.1 8.9-.5 19.5-.7 14.3-1.3 19.7-2.8 21.3-1 1.2-2.2 2.2-2.5 2.2-.4-.1-2-2.5-3.7-5.5-2.1-3.7-3.3-8.1-4.3-22l6.8-7.8c3.7-4.4 6.8-7.8 7-7.7zm-924.4 6c1.4 0 2.8.6 3.1 1.3.4.7.7 5.1.8 9.8.1 6.5-.8 11.5-3.8 20.4-2.2 6.5-7 16.7-10.8 22.8-3.8 6.1-8.5 14.6-10.6 18.8-2.1 4.2-6.4 13.6-9.6 20.9-3.2 7.4-7.6 18-9.8 23.5-2.2 5.6-5 11.2-6.1 12.5-1.2 1.2-2.6 1.8-3.1 1.2-.5-.5.4-4.9 2-9.8 1.7-4.9 6.3-17.5 10.3-28 3.9-10.5 8.1-21.3 9.3-24.1 1.1-2.8 4-9.4 6.4-14.6 2.4-5.3 5.5-12.1 6.9-15.3 1.3-3.1 3.9-12 5.6-19.7 1.7-7.7 3.9-15.3 5-16.8 1-1.6 3-2.9 4.4-2.9zm284.5 0c.8 0 2.3.5 3.6 1.1 1.3.7 3.1 4.4 4.4 9.2 1.2 4.5 3.1 11.9 4.1 16.4 1.1 4.5 5.3 15.7 9.5 24.8 4.1 9.1 9.6 21.9 12.1 28.6 2.6 6.6 7.5 19.8 10.9 29.2 3.4 9.4 6.2 18.6 6.2 23.5l-2.6-3.2c-1.3-1.7-5.9-11.4-10.1-21.6-4.2-10.1-10.6-24.4-14.1-31.7-3.6-7.4-7.8-15.1-9.4-17.2-1.5-2.1-4.8-7.8-7.3-12.7-2.5-4.9-5.8-13.2-7.3-18.4-1.6-5.3-2.9-12.7-3-16.5-.1-3.9.3-8 .8-9.3.5-1.2 1.5-2.2 2.2-2.2zm301.1 8.3c.5.7 2.2 4.1 3.6 7.6 1.5 3.5 3.6 12.1 4.8 19.1 1.4 8.2 1.9 17.1 1.6 25.4-.5 11.5-1.1 14-6.7 27.9-3.3 8.4-9.4 21.8-13.4 29.9-4.1 8-8.3 15.7-11.6 19.7l.8-2.6c.5-1.4 1.9-7.4 3.2-13.3 1.3-5.9 3.5-18 5-26.7 1.4-8.7 4.3-27.9 6.3-42.6 2.1-14.6 4.2-30.9 4.6-36.2.5-5.2 1.3-8.9 1.8-8.2zm352.2 2.5c.6 2.1 2.5 15.6 4.3 29.9 1.8 14.3 4.7 34.9 6.5 45.7 1.7 10.8 4.2 25.1 5.5 31.8 1.4 6.6 3.1 13.8 3.9 15.9 1.3 3.1 1.2 3.5-.2 2.3-1-.8-5-7.6-8.9-15.2-4-7.6-9.8-20.1-12.9-27.8-3.2-7.7-6.4-16.5-7.3-19.7-.8-3.1-1.4-11.4-1.4-18.4.1-7 1-17.3 2-22.9 1.1-5.6 3.2-13.6 4.8-17.8 2.8-7.4 2.8-7.5 3.7-3.8zm-929.3.7c.6 0 2 1.3 3.2 2.9 1.4 1.7 2 3.7 1.5 5.3-.5 1.4-3.4 8.3-6.5 15.3-3.1 6.9-6.8 15-8.2 17.7-1.5 2.8-4.4 8.3-6.5 12.1-2.1 3.9-4.6 8.1-5.5 9.5-.9 1.4-4.7 9.7-8.5 18.5-3.8 8.7-9.6 21.7-13.1 28.9-3.4 7.1-6.4 12.8-6.6 12.7-.2-.2 1.6-5.8 4-12.4 2.4-6.6 6.5-17.2 9.1-23.5 2.6-6.3 6.3-14.6 8.2-18.4 2-3.9 6.1-10.7 9.2-15.3 3.1-4.5 7.4-12.2 9.6-17.1 2.1-4.9 5.1-13.2 6.6-18.5 1.4-5.2 2.6-11.3 2.6-13.6 0-2.3.4-4.1.9-4.1zm268.3.6c.4.2 1.2 3.7 1.8 7.8.6 4.1 2.5 11.7 4.3 17 1.8 5.2 4.4 11.8 5.8 14.6 1.4 2.8 5.6 9.6 9.3 15.2 3.7 5.6 8.2 13.6 10.1 17.8 1.9 4.2 6.7 15.9 10.8 26.1 4 10.1 7.7 19.8 8.1 21.6.4 1.7-2.2-2.9-5.9-10.2-3.7-7.3-9.4-19.6-12.7-27.3-3.3-7.7-9.7-20.6-14.1-28.6-4.5-8-11.4-22.2-15.3-31.5-6.9-16.2-7.1-16.9-5-19.8 1.1-1.7 2.4-2.9 2.8-2.7zm669.6 5.1c.5.7 2.8 12.7 5.1 26.7 2.2 13.9 5.3 31.7 6.7 39.3 1.4 7.7 4.2 20.6 6.1 28.6 2 8.1 4.3 16.4 5 18.5.8 2 1.1 3.9.8 4.1-.4.2-1.8-1.3-3.1-3.2-1.4-1.9-3.9-6.8-5.7-10.8-1.8-4-4.4-11.7-5.8-17.1-1.4-5.5-3.7-17.9-5.1-27.7-1.4-9.8-3.4-26.1-4.3-36.2-.9-10.1-1.4-19.6-1.1-21 .3-1.4.9-1.9 1.4-1.2zm-369.6.6c.7 0 1.3 2.7 1.3 6 0 3.4-1.1 15.8-2.5 27.7-1.4 11.9-3.7 28.4-5.1 36.8-1.5 8.4-3.9 18.7-5.3 22.9-1.5 4.2-3.8 9.9-5.1 12.7-1.3 2.8-3.8 6.8-5.6 8.9-1.8 2.1-2.8 2.9-2.3 1.9.6-1 1.1-2.5 1.3-3.2.1-.7 1.7-6.7 3.5-13.3 1.8-6.7 4.4-17.8 5.7-24.8 1.4-7 4.9-26.4 7.7-43.2 2.8-16.8 5.1-30.9 5.1-31.4 0-.6.6-1 1.3-1zm47.3 5.2c1.3-.1 2.5.3 2.8.8.3.6-2.2 7.6-5.4 15.6-3.3 8-8.1 18.6-10.8 23.5-2.6 4.9-10.1 20.1-16.8 33.7-6.6 13.6-12.3 24.3-12.6 23.8-.4-.5 1.3-5.7 3.7-11.4 2.4-5.8 9.5-25.4 15.6-43.5 6.2-18.2 12.2-34.7 13.5-36.6 1.3-2 3.6-4.1 5.1-4.7 1.5-.6 3.7-1.2 4.9-1.2zm274.2-.1c1.4 0 4 .7 5.8 1.6 1.9.9 4.5 4.2 6.2 7.9 1.7 3.5 7.1 18.7 12.1 33.7 5.1 15 10.8 31.5 12.8 36.5 2.1 5.1 5.8 13.4 8.3 18.4 2.5 5.1 3.7 8.4 2.6 7.3-1.1-1-10.4-18.4-20.6-38.7-10.2-20.3-21-43-24.1-50.5-3.1-7.5-5.7-14.2-5.7-14.9 0-.7 1.2-1.3 2.6-1.3zm-319 101c.4.4-.1 1.4-1 2.2-1.3 1.3-1.5 1.2-.7-.7.6-1.2 1.3-1.9 1.7-1.5z" /></g>
    <g id="abdomen"><path fill="#3f4140" d="M257.9 286c.2-.1 1.4.5 2.8 1.2s3.2 3.4 3.8 6c.7 2.6 1.3 10 1.3 16.5 0 7.9-.5 12.2-1.6 13.1-.8.7-6.4 4.3-12.4 7.9-5.9 3.7-14 8.6-18.1 10.8-4 2.3-7.7 3.9-8.2 3.6-.5-.2-1.8-4.1-2.8-8.6-1.1-4.4-1.9-12.6-1.9-18.2.1-5.6.8-11.5 1.6-13 1-1.9 7.6-5.8 18.3-11.1 9.3-4.5 17-8.2 17.2-8.2zm26.1 1c1.5.6 9.5 4.3 17.7 8.2 11.7 5.7 15.3 8 16.4 10.7.8 1.9 1.4 8.6 1.3 14.9-.1 6.3-.9 14.3-1.8 17.7-.9 3.4-2.2 6.4-2.9 6.7-.7.3-8.9-4.1-18.4-9.8-9.4-5.6-17.6-10.2-18.1-10.2-.5.1-1.6-1.2-2.4-2.8-.9-1.8-1.2-8-.9-17.3.5-13 .8-14.6 3.4-16.7 2-1.7 3.6-2.1 5.7-1.4zm-70 17.9c.6 0 1 7.2 1 15.9 0 8.8-.4 15.9-1 15.9-.5.1-3.2-1.4-6-3.3-2.8-1.8-6.7-4.8-8.6-6.7-1.9-1.8-3.6-4-3.7-4.8-.2-.8 3.7-5 8.6-9.2 4.8-4.3 9.2-7.8 9.7-7.8zm112.9.3c.5.2 4.8 3.7 9.4 7.7 4.5 4 8.3 8 8.3 8.9.1.8-2.7 3.9-6 6.8-3.3 2.8-7.4 5.8-8.9 6.6-1.6.8-3.2 1.5-3.5 1.5-.4 0-.6-7.2-.5-16 .1-8.8.6-15.8 1.2-15.5zM194.7 329l9.2 6.2c5.1 3.4 9.6 7.1 10.1 8.3.6 1.1 1 4.7 1 7.8 0 3.7-.6 5.7-1.6 5.7-.9 0-4.8-2.1-8.7-4.7-3.9-2.7-8.6-6.1-10.4-7.7-2.4-1.9-3.3-3.7-2.9-5.7.3-1.5 1.2-4.4 2-6.4zm151.2 1.2c.5.5 1.5 3.1 2.3 5.9 1.1 4.3 1 5.5-.9 7.4-1.2 1.3-6.4 5.3-21.2 15.1l-.3-6.5c-.2-3.5.2-7.6.9-9 .7-1.4 5.1-5 9.8-8.1 4.7-3 8.9-5.2 9.4-4.8zm-84 2.7c.4 0 1.5.9 2.6 2.1 1.5 1.7 1.8 5.5 1.5 20.1-.2 9.8-.8 18.3-1.3 18.8-.5.6-5.2 1.4-10.4 1.8-5.2.4-14 .4-29.2-.8v-7.7c0-4.2.6-9.2 1.4-11.1.8-1.9 2.8-4.6 4.6-6 1.8-1.4 9.3-5.8 16.7-9.8 7.4-4 13.8-7.4 14.1-7.4zm17.7.6c1.1.5 7.7 4 14.7 7.8 7 3.8 14 8 15.6 9.4 1.6 1.4 3.4 4.4 4.1 6.7.7 2.3 1.3 7.1 1.3 17.5l-11.1.8c-6.1.4-14.9.4-19.4 0-4.5-.5-8.8-1.5-9.5-2.2-.7-.7-1.4-8.9-1.6-18.1-.3-13.8 0-17.3 1.7-19.7 1.4-1.9 2.8-2.7 4.2-2.2zm-88.1 14c1.1 1.4 2 2.3 2.2 2 .1-.3 4.9 2.9 21.1 14.6l.1 20.9-4.1-2.8c-2.3-1.6-8-6.6-21.3-19.4l.1-8.9c0-8.2.1-8.7 1.9-6.4zm158.6-2.1.5 5.5c.2 3.1.1 7.4-.3 9.7-.5 3-3 6.2-9.3 11.9-4.7 4.2-10 8.7-14.9 12.3l-1-6.5c-.5-3.7-.5-8.5 0-10.9.7-2.9 2.4-5.1 5.4-6.9 2.5-1.5 7.9-5.5 12.1-8.9zm-159.2 24.3 24.1 20.7-.1 10.6c0 5.9-.5 10.8-1 10.8s-4.6-2.4-9.1-5.4c-4.5-3-9.5-7.2-11.1-9.3-1.8-2.4-3-5.9-3.2-9.5-.2-3.1-.2-8.5 0-11.8zm157.6.1.5 11.5c.5 9.3.2 12-1.7 14.7-1.2 1.9-5.5 5.9-9.5 8.9-4 3.1-7.9 5.3-8.6 4.9-.7-.3-1.2-.1-1.2.6s-.6 1.3-1.3 1.3c-.8 0-1.2-4.3-.6-22l11.2-9.9zm-90.8 8.9c3 0 6.3.2 7.3.5 1.6.6 1.9 3.4 1.9 15 0 7.8-.3 15.5-.6 17.1-.6 2.8-1.1 2.9-16.2 2.9-8.5 0-17.5-.4-19.9-1-2.9-.6-4.6-1.9-5.5-4.1-.6-1.7-1.1-7.8-1.1-13.3.1-5.6.2-10.4.4-10.5.2-.2 6.7-1.7 14.4-3.4s16.4-3.1 19.3-3.2zm22.5-.1c2.8 0 12 1.4 20.4 3.2 8.4 1.7 15.4 3.1 15.6 3.1.2.1.2 5.7 0 12.7-.2 8.3-.9 13.2-2 14.3-1.1 1.2-7.2 1.8-39 2.6l-.9-3c-.5-1.7-1.1-9.4-1.2-17.1-.1-7.8.3-14.5.8-14.9.6-.5 3.4-.9 6.3-.9zm69.5 21.5c.5.4 1.6 7.6 2.3 16 .7 8.4 1.3 19.8 1.3 35.6l-8.1 8.9c-4.4 4.8-10.6 11.4-13.6 14.6-3.1 3.2-7.3 6.2-9.4 6.7-2.1.6-4.2.5-4.7 0-.5-.6-.1-3.9 1-7.4 1-3.5 2.4-14.3 3.1-24.1.7-9.8 1.6-20.8 1.9-24.5.6-6.5.9-6.8 7.9-11.6 4.1-2.8 9.6-7.3 12.4-10 2.7-2.7 5.4-4.6 5.9-4.2zm-159.2.1c.5 0 3.4 2.3 6.6 5.1 3.1 2.9 8.7 7.3 12.4 9.9 3.7 2.6 6.7 5.1 6.7 5.7-.1.5.8 11.8 1.8 25 1.1 13.3 2.5 25.6 3.2 27.4.7 1.7 1.3 4.6 1.3 6.3 0 1.8-.7 3.2-1.6 3.2-.9 0-3.5-1-5.7-2.2-2.3-1.3-9.7-8.3-28.7-28.9l.8-20.4c.5-11.1 1.2-22.7 1.6-25.7.5-3 1.2-5.4 1.6-5.4zm52.6 19.6c9.1.4 16.8 1.5 24.5 4.7l-.6 53.2c-.4 29.2-1.1 53.6-1.7 54.2-.5.6-3.6-.2-6.9-1.9-3.5-1.7-7.7-5.2-10-8.2-2.1-2.9-5.3-8.8-7.1-13-1.8-4.2-5-14.7-7.2-23.5-2.2-8.7-4.8-22.1-5.9-29.8-1.1-7.7-2.4-18.5-2.9-23.9-.8-8.1-.6-10.2 1-11.2 1.2-.8 7.6-1 16.8-.6zm59.4-.4c5.3 0 10.4.4 11.5 1.1 1.6 1 1.7 3.1.2 17.4-1 9-3.1 23.7-4.9 32.8-1.7 9.1-4.6 21.1-6.4 26.7-1.8 5.6-4.5 12.7-6.1 15.9-1.6 3.1-4.5 7.7-6.5 10.1-2 2.3-6.1 5.4-9.1 6.6-2.9 1.3-5.8 2-6.3 1.6-.5-.4-1.2-24.6-1.4-53.7-.4-43.6-.2-53.2 1.2-54.5 1-.9 5.5-2.1 10-2.7 4.6-.6 12.6-1.2 17.8-1.3z" /></g>
    <g id="hombros"><path fill="#3f4140" d="M171.8 179.3c6.6-.1 9.6.6 15.1 3.4 3.8 1.9 7.5 4.7 8.3 6.3q1.4 2.9.1 4c-.7.5-3.8 2-7 3.2-3.1 1.2-7.9 3.7-10.5 5.6-2.6 1.9-5.3 4.8-5.9 6.6-.7 1.7-1.4 8-1.7 14-.3 7.2-1.3 12.3-2.9 15.6-1.4 2.7-5.1 8-8.2 11.7-3.2 3.8-6.9 7.2-8.3 7.7-1.4.4-4.2-.1-6.3-1.1-2.1-1.1-6.5-4.8-9.9-8.4-4.4-4.7-6.6-8.5-8.1-13.8-1.2-4.5-1.8-9.7-1.4-13.7.4-3.4 1.9-8.7 3.3-11.7 1.5-3 6-8.6 10-12.5 4.1-4 9.6-8.7 12.4-10.7 2.8-1.9 6.8-4 8.9-4.8 2.1-.7 7.6-1.4 12.1-1.4zm196.9-.1c6.3 0 10 .8 15.3 3.3 4.5 2.1 10.7 7 17.4 13.6 9.1 9.1 10.6 11.3 12.5 18 1.3 4.6 1.9 9.8 1.5 13.3-.3 3.2-2.1 8.6-3.8 12.1-1.8 3.5-5.2 8.1-7.5 10.3-2.3 2.2-5.7 4.9-7.4 6-1.8 1.2-4.3 2.2-5.7 2.2-1.5 0-5-2.8-8.4-6.7-3.3-3.7-7.2-9-8.9-11.8-2.4-4.1-3.1-7.6-3.7-17.8-.4-7-1.4-13.8-2.3-15.2-.9-1.4-3.5-3.8-5.7-5.4-2.2-1.6-6.9-3.9-10.4-5.3-4.6-1.7-6.5-3.2-6.7-5.1-.2-1.7 1-3.5 3.2-5.1 1.9-1.3 5.5-3.3 7.9-4.4 2.5-1.1 8.2-2 12.7-2zm416.8 6.1c2.4.3 7 2.1 15.9 7.5L795 197c-3.5 2.3-7.9 5.8-9.8 7.8-1.9 2-4.7 5.9-6.1 8.7-1.4 2.8-3 8.9-3.6 13.6-.7 5.8-2 10-4.1 12.8-1.7 2.3-5.9 6.4-9.4 9.1-3.5 2.6-9.1 6-18.4 10.2l.3-22.6c.3-21.2.5-22.9 3.5-28.7 1.7-3.4 6-8.6 9.5-11.6s8.4-6.4 10.8-7.7c2.5-1.2 6.5-2.6 8.9-3 2.4-.4 6.4-.5 8.9-.3zm214.7.2c3.2.4 8.3 2.2 11.5 4.1 3.1 1.8 7.9 5.5 10.5 8.2 2.7 2.7 6.4 7.4 8.3 10.6 3.2 5.5 3.4 6.5 3.7 27.6.3 18.8.1 21.9-1.6 21.9-1 0-4.9-1.5-8.6-3.3-3.6-1.9-9.9-6.8-13.9-10.8-6.3-6.4-7.3-8.1-7.3-12.2 0-2.7-1.1-8.5-2.5-13.1-2-6.6-3.7-9.4-8.6-14-3.3-3.2-8-6.9-10.2-8.3-2.3-1.3-4-2.9-3.9-3.4.2-.5 2.6-2.1 5.4-3.7 2.8-1.5 6.5-3.1 8.3-3.5 1.8-.5 5.8-.5 8.9-.1z" /></g>
    <g id="pectoral"><path fill="#3f4140" d="M211.8 191.8c-2.8.6-8.2 2.7-12 4.7-3.9 1.9-9.6 6.1-12.8 9.3-4.3 4.3-6.2 7.5-7.6 12.7-1.1 4.1-1.9 12.6-1.9 20.4.1 10.1.7 15.5 2.9 22.5 1.6 5.2 4.2 10.6 6 12.4 1.8 1.8 3.1 3.6 3 4.1-.1.6 2.3 2.7 5.4 4.9 3.2 2.2 9.6 4.8 15.1 6.2 6.7 1.6 12.4 2.1 19.1 1.7 6.6-.4 11.7-1.6 16.8-4 4.3-1.9 8.9-5.3 11.2-8.1 2.1-2.6 4.4-7.1 5.2-9.9.7-2.8 1.7-12.2 2.2-20.9.4-8.8.4-20.1-.2-25.1-.5-5.1-1.8-11.4-2.9-14-1.1-2.6-3.3-6.8-5-9.2-1.6-2.5-4.6-5.3-6.6-6.2-2.2-1.1-9.2-1.9-18.2-2.2-8-.2-16.9.1-19.7.7zm82.3.2c-4.2.9-6.5 2.5-9.5 6.6-2.3 2.9-5 8.5-6.2 12.3-1.2 3.9-2.5 11.3-3 16.5-.4 5.3-.2 15.9.6 23.5.7 7.7 1.6 15.7 2 17.8.3 2.1 2.7 6.3 5.3 9.4 2.8 3.2 7.7 6.9 11.7 8.8 5.1 2.3 9.8 3.4 17.2 3.8 7 .4 12.7-.1 18.4-1.6 4.6-1.2 9.7-2.9 11.5-3.8 1.7-.9 5.1-3.6 7.4-5.9 2.4-2.4 5.5-6.6 6.9-9.4 1.4-2.8 3.3-7.7 4.2-10.8 1-3.1 2.1-9.7 2.5-14.6.5-4.9.2-13.1-.6-18.1-.7-5.1-2.2-10.9-3.3-13-1-2.1-4.3-6.2-7.3-9s-9.1-6.9-13.7-9c-7.5-3.6-9.5-4-23.5-4.4-8.3-.2-17.7.2-20.6.9z" /></g>
    <g id="dorsal"><path fill="#3f4140" d="M845.4 263.9c.5.6 3.8 7.6 7.4 15.6 3.6 8.1 7.5 16.6 8.7 19.1 1.2 2.4 4 7.3 6.3 10.8 2.3 3.5 4.2 7.3 4.1 8.6 0 1.2-1.5 6.9-3.3 12.7-1.9 5.7-5.7 15.9-8.5 22.5-2.7 6.7-9.7 24.6-25.7 67.6l-6.2-6.8c-3.4-3.7-7.5-9.1-9.1-11.9-2-3.4-4.1-11.1-6.3-23.5-1.8-10.1-4.7-25-6.4-33-1.7-8-3.9-20.3-4.9-27.3-1.3-9.9-2.7-14.7-6.2-21.6-2.5-4.9-5.2-12.1-6-15.9-.8-3.8-1.2-7.1-1-7.3.2-.1 2.7.9 5.5 2.3 3 1.4 9.2 2.8 15.2 3.3 7.7.6 11.7.3 16.5-1.2 3.5-1.2 7.7-3.4 9.2-5 1.6-1.6 4.4-4.5 6.3-6.4 1.9-2 3.9-3.1 4.4-2.6zm87.7-.9c.6 0 2.9 2.4 5.2 5.2 2.3 2.9 6.4 6.4 9.2 7.8 2.8 1.4 7.9 2.9 11.4 3.2 3.5.4 10.1 0 14.6-.9 4.6-.9 9.9-2.4 11.8-3.3 1.9-1 3.7-1.7 4-1.5.3.2 0 3.2-.6 6.7-.7 3.5-3.5 10.9-6.2 16.5-4 8-5.4 12.5-6.4 21.6-.8 6.3-2.2 15.1-3.3 19.7-1 4.5-3.9 19.7-6.4 33.6-3.3 18.2-5.5 26.7-7.5 29.9-1.5 2.5-5.2 7.5-8.1 11.1-2.8 3.7-5.8 6.6-6.6 6.4-.8-.2-3-4.6-4.9-9.9-1.9-5.2-6.4-16.9-10-26-3.5-9.1-8.2-20.8-10.4-26.1-2.2-5.2-5.9-15.1-8.3-21.9-2.4-6.8-4.4-14.2-4.4-16.5.1-2.5 1.7-6.7 4.3-10.5 2.3-3.5 8-15.1 12.8-25.7 4.8-10.7 9.2-19.4 9.8-19.4zm-752.6 14c.8 0 4.5 2.4 8.1 5.4 3.7 3 9.1 6.9 12.1 8.6 3.9 2.2 5.5 4 5.4 6 0 2.5-.5 2.8-4.1 2.1-2.3-.4-7.2-2.1-10.8-3.8-3.7-1.7-7.5-4.4-8.5-5.9-1-1.6-2.2-5-2.7-7.6-.6-3.3-.5-4.8.5-4.8zm178.9.5c.9.1 1.2 1.7.8 4.6-.4 2.4-1.4 5.7-2.4 7.3-1 1.5-4.8 4.2-8.4 5.8-3.7 1.7-8.6 3.4-10.8 3.9-3.7.7-4.2.4-4.2-2.1 0-2.1 1.8-3.9 6.7-6.9 3.7-2.2 9-6 11.8-8.3 2.7-2.4 5.7-4.3 6.5-4.3zm-181 12.8 2.7 3.5c1.5 1.9 7.3 5.6 23.1 12.8l-7 6.1c-6.9 6.1-7 6.2-9.5 3.8-1.4-1.3-4.4-6.5-6.7-11.4-2.6-5.8-3.8-10.1-3.4-11.9zm184.3 2.4c.6 1.2.1 4.6-1.2 8-1.2 3.3-3.8 8.5-5.7 11.5-2.8 4.3-4.1 5.3-6.4 4.8-1.6-.4-5.1-2.9-13-10.7l6.3-2.7c3.5-1.5 8.2-3.6 10.4-4.7 2.2-1.1 5-3.4 6.3-5.1 2-2.6 2.5-2.8 3.3-1.1zm-183.8 18.6c.6 0 3.6 3.1 6.6 6.9 5.4 7 5.4 7.1 4.1 13.4-.7 3.5-1.8 6.6-2.5 7-.7.3-2.8-2.4-4.6-6.1-1.9-3.8-3.6-9.8-4-13.9-.4-4.1-.2-7.3.4-7.3zm182.6 0c.6 0 .7 3.4.3 7.6-.3 4.3-2 10.3-3.8 14-1.8 3.4-3.8 6-4.5 5.7-.7-.4-1.8-3.5-2.5-7-1.3-6.3-1.2-6.4 4.1-13.3 3-3.8 5.9-6.9 6.4-7z" /></g>
    <g id="trapecio"><path fill="#3f4140" d="M869.5 107.4c-2.7 1.8-3 2.9-2.9 10.2.1 4.5-.7 12-1.7 16.8-1.1 4.7-3.3 11.1-4.9 14.3-2.4 4.6-4.8 6.8-12.7 11.4-5.4 3.1-9.7 6.1-9.7 6.7 0 .5 9.3.9 20.6.9 11.4 0 21.3-.4 22.1-1 .9-.6 1.7-10.6 2.3-28.8.4-15.4.4-28.7-.2-29.6-.5-.8-3-1.9-5.4-2.3-3-.5-5.5 0-7.5 1.4zm29.5-.7-3.6.7c0 43.3.4 56.9 1 58.1.8 2 3.1 2.2 22.5 2.2 11.9 0 21.6-.4 21.7-.9 0-.6-4-3.1-8.9-5.8-5-2.6-10.2-6.3-11.6-8.2-1.4-1.9-3.7-6.4-4.9-9.9-1.3-3.5-3-10.9-3.8-16.5-.8-5.6-1.5-12.1-1.7-14.5-.3-3.6-.9-4.5-3.7-5.1-1.9-.5-5-.5-7-.1zM241.7 134c0 7.5.9 12.1 4.1 21.3 2.2 6.5 6.4 16.3 9.2 21.9 2.8 5.5 5.8 10.2 6.7 10.5.9.2 1.9-1.2 2.3-3.1.4-2 .1-7-.5-11.2-.7-4.2-2.4-10.4-3.8-13.9s-4.3-10.7-6.5-15.9c-2.2-5.3-5.3-11.7-6.9-14.3-1.6-2.6-3.3-4.8-3.8-4.8-.4 0-.8 4.3-.8 9.5zm53.4-5.7c-1.7 2.5-5.3 9.6-8.1 15.9-2.7 6.3-6 14.6-7.3 18.4-1.4 3.9-2.8 10.5-3.2 14.6-.3 4.2-.1 8.5.6 9.6.6 1 1.6 1.5 2.2 1.1.6-.4 3.5-5.6 6.4-11.4 2.9-5.9 7-15.5 9.2-21.5 3.4-9.3 3.9-12.2 3.7-21l-.4-10.1zm-41.9.9c-.1.5.4 1.6 1 2.3.6.7 3.8 8.1 7.1 16.5s6.4 16.1 7 17.1c.5 1.1 1.5 1.9 2 1.9.6 0 4.2-7.7 8.1-17.2 4-9.6 8-18.3 9.1-19.6 1.7-2 1.6-2.1-2-1.2-2.1.6-8.6 1.1-14.6 1.1-5.9 0-12.3-.4-14.2-.9-1.9-.5-3.5-.5-3.5 0zm-14 35.9c0 4.2.8 9.7 1.9 12.1 1 2.4 4 5.9 6.6 7.6 2.7 1.8 5.2 3.2 5.8 3.2.5 0-1.9-6.3-5.4-14-3.5-7.7-6.4-14.5-6.4-15.2 0-.7-.6-1.3-1.3-1.3-.7 0-1.2 3.4-1.2 7.6zm59.8-6.6c-.1.8-3 7.8-6.5 15.5s-5.9 14-5.4 14c.6 0 3-1.4 5.4-3.2 2.5-1.8 5.5-5.1 6.7-7.3 1.2-2.3 2.2-6.4 2.1-9.2-.1-2.8-.6-6.5-1.1-8.3-.6-1.7-1.1-2.4-1.2-1.5zm-70.6 4.4c-2.6 2.3-8.7 6.7-13.4 9.9-4.7 3.1-9.7 6.3-11 7.1-2 1.2-1.4 1.6 4.4 2.8 3.6.8 10.5 1.5 15.2 1.5 8.2.1 8.6-.1 10.1-3.5.8-1.9 1.7-6.9 2.1-11.1.3-4.2.4-8.4.1-9.2-.3-.9-1-1.6-1.6-1.6-.6 0-3.2 1.8-5.9 4.1zm76.1-1.3c-.4 1.6-.4 6.3.1 10.5s1.6 8.7 2.4 10.1c1.3 2.2 2.5 2.4 13.5 1.7 6.6-.4 13.4-1.2 15-1.8 2.8-1 2.5-1.4-5-6.1-4.5-2.7-11.7-7.7-16-11.1-4.4-3.4-8.2-6.1-8.6-6.1-.3 0-.9 1.3-1.4 2.8zm532.5 12c-1.4.2-5.9 1.2-9.9 2-4 .9-7.2 1.9-6.9 2.2.2.4 2.4 5 4.9 10.2 2.5 5.2 6.3 15 8.4 21.6 2.2 6.6 6 19.2 8.6 28 2.5 8.7 6.6 20.7 9.2 26.6 2.5 6 8.5 17.7 13.3 26.1 4.7 8.4 9.8 18.4 11.2 22.2 1.4 3.9 3 8.1 3.6 9.5.6 1.6 1.8-10 3.1-29.8 1.2-17.8 2.2-45 2.1-60.4 0-19.9-.6-30.5-1.9-36.8-1.2-5.5-3-10-4.8-11.8-1.5-1.6-5.1-4-7.9-5.3-2.8-1.3-10.6-3-17.5-3.8-6.8-.7-12.5-1.3-12.7-1.2-.1.1-1.4.4-2.8.7zm88.3.4c-3.9.5-9 1.3-11.4 1.7-2.5.4-6.9 2.5-9.9 4.6-3 2.2-6.2 5.7-7.2 8s-2.5 10.7-3.3 18.8c-1 9.5-1.3 23.3-.7 40 .5 14 1.7 36.3 2.7 49.5 1 13.3 1.8 25 1.9 26.1 0 1 1.6-2.4 3.5-7.6 1.9-5.3 6.4-14.4 9.9-20.4 3.6-5.9 9.1-16.2 12.3-22.8 3.3-6.9 9.4-24 14.2-39.7 4.6-15.2 9.7-31.3 11.3-35.6 1.7-4.4 4.2-10.4 5.7-13.4 1.5-2.9 2.8-5.7 2.8-6 0-.3-2.8-1.2-6.1-1.8-3.3-.7-8.9-1.5-12.4-1.8-3.5-.3-9.5-.1-13.3.4z" /></g>
    <g id="lumbar"><path fill="#3f4140" d="M869 349.1c-3.2 6.8-7.5 16.4-9.6 21.3-2.1 4.9-7.1 17.2-11 27.3-3.9 10.1-8.3 22.4-9.6 27.3-1.4 4.9-2.5 10-2.5 11.4-.1 1.9 5 5.9 20 15.7 11 7.3 20.6 13.3 21.3 13.4.6.1 1.9-4.7 2.7-10.6.9-6 1.6-22.8 1.7-37.5 0-14.7-.5-34.4-1.2-43.8-.7-9.5-2-21.4-2.9-26.6-.8-5.1-1.9-9.5-2.4-9.8-.4-.2-3.3 5.2-6.5 11.9zm31-4.5c-.7 4.4-2 14.6-2.7 22.6-.8 8-1.4 28.6-1.5 45.7 0 17.5.6 35.9 1.5 42 .8 5.9 1.7 10.9 2 11.1.3.2 7.3-4 15.5-9.3 8.2-5.4 17.6-11.5 20.9-13.7 3.4-2.2 6.1-4.6 6.1-5.3 0-.7-1.1-5.5-2.5-10.8-1.3-5.2-5.4-17.2-9-26.7-3.6-9.4-7.6-19.4-8.9-22.2-1.2-2.8-3.4-7.9-4.8-11.4-1.3-3.5-5.1-11.7-8.3-18.1-3.3-6.5-6.1-11.8-6.4-11.8-.3 0-1.2 3.6-1.9 7.9z" /></g>
    <g id="biceps"><path fill="#3f4140" d="M138.9 266.8c1 .1 2.4.5 3.2 1 .8.5 2.3 2.6 3.3 4.7 1.1 2.1 2.3 5.9 2.8 8.3.4 2.4.2 8.3-.5 13-.7 4.7-3 13.3-5.1 19.1-2.1 5.7-5.7 13.3-7.9 16.7-2.5 3.6-6.2 7.2-9 8.6-2.6 1.3-6.3 2.2-11.7 1.7l.2-14c.1-7.7.8-17.4 1.6-21.6.7-4.2 3.5-11.8 6.1-17 2.6-5.1 7.1-11.9 10-14.9 2.8-3.1 6-5.6 7-5.6zm262.9.1c1 0 4.1 2.4 6.9 5.4 2.7 2.9 7.4 10.5 10.4 16.8 5 10.5 5.5 12.7 6.9 27.9.8 9.1 1.1 18.2.6 20.3-.8 3.7-1 3.8-6.2 2.9-2.9-.5-7-2.3-9.1-3.9-2.1-1.7-5.6-6.4-7.8-10.5s-5.5-12.2-7.3-18c-1.8-5.8-3.7-13.5-4.1-17.2-.6-4.7-.1-8.7 1.5-13.9 1.2-4 3.1-7.8 4.3-8.5 1.1-.7 2.8-1.3 3.9-1.3zm596.5 18.7c.9.5 6 4.9 11.4 9.8 5.3 4.9 10.8 11.2 12.2 14 1.4 3 2.4 7.8 2.4 11.7.1 3.7 1.5 14.4 3.2 23.9 1.8 9.4 3.2 19.5 3.3 22.5 0 3-.7 6.1-1.6 7-1.3 1.2-2.6.3-6.2-4.5-2.5-3.3-4.9-6.5-5.3-7.2-.4-.7-1.4-5-2.1-9.6-1-5.8-2.5-9.6-5-12.7-2-2.4-4.4-5.9-5.3-7.6-.9-1.8-2.4-6-3.2-9.5-.9-3.5-2.8-9.7-4.3-13.7s-2.7-10-2.6-13.3c0-3.4.3-7.3.8-8.9.5-1.8 1.3-2.5 2.3-1.9zm-218 .3c1.2 0 2 1.7 2.4 4.7.2 2.7.1 7.4-.4 10.5-.5 3.2-1.8 7.7-2.8 10.2-1.1 2.4-3 8.4-4.3 13.3-1.4 5.3-3.9 10.8-6.1 13.4-2 2.4-4.3 5.9-5 7.6-.8 1.7-2 6.6-2.7 10.8-1.1 5.8-2.5 9-6.1 13.2-2.6 3.1-5.5 5.8-6.3 6.1-1.2.3-1.6-2.1-1.6-8.8 0-5.1 1.1-14.7 2.5-21.3 1.4-6.6 2.9-16.4 3.3-21.6.4-5.2 1.3-11.4 1.9-13.7.8-2.7 4.8-7.4 12.3-14.3 6.1-5.5 11.9-10.1 12.9-10.1z" /></g>
    <g id="triceps"><path fill="#3f4140" d="M772.8 246.5c.7 0 2.2 6.1 3.3 13.7 1.1 7.5 2.3 15 2.7 16.8.6 2.8-.6 4.1-10.1 10.8-5.9 4.2-10.9 8.2-11.1 8.9-.3.7-1.7 2.8-3.1 4.8-1.5 1.9-3.4 3.5-4.3 3.5-.8 0-2.2-1.6-2.9-3.6-.8-1.9-1.4-7.7-1.5-13 0-7.2.6-11.1 2.8-15.9 1.8-4.1 6.3-9.7 12.8-16.2 5.5-5.4 10.6-9.8 11.4-9.8zm233.6 1.1c1.1.6 5.7 4.5 10.1 8.6 5.3 4.9 9.4 10.1 11.8 15.1 2.9 6 3.7 9.2 3.6 15.2 0 4.2-.5 9.9-1 12.7-.5 2.9-1.7 5.3-2.7 5.5-1.1.2-4.5-2.6-7.6-6.2-3.2-3.7-8.6-8.5-12.1-10.8-3.5-2.2-7.2-5.1-8.3-6.3-1.6-1.8-1.7-3.4-.2-11.8.9-5.4 2.2-12.8 2.9-16.4 1.2-5.6 1.7-6.5 3.5-5.6zM169.7 256c1.7 5.1 2.5 11.3 2.5 18.4 0 9.1-.7 13.2-4.7 25.5-2.6 8-8.4 22-12.8 31.1-4.5 9.1-10.4 19.2-13.3 22.5-2.8 3.4-5.9 6.1-6.8 6.1-.8.1-2.4-.9-3.5-2-1.5-1.7-1.6-2.9-.4-6.7.8-2.6 5.6-14.1 10.6-25.6 5-11.6 11.3-27.6 14-35.6 2.7-8 6.1-20 7.6-26.7 1.5-6.6 3.1-12.6 3.5-13.3.5-.7 2 2.1 3.3 6.3zm204.1-6.3c.6.7 2.3 7 3.9 13.9 1.6 7 4.7 18.2 7 24.8 2.2 6.7 6.4 17.8 9.2 24.8 2.8 7 7.7 18.7 11 26 3.9 8.8 5.7 14.4 5.2 16.2-.4 1.6-1.7 3.2-2.9 3.6-1.6.6-3.9-1.1-7.8-5.4-3.4-3.7-8.7-12.5-13.6-22.6-4.4-9.1-10.2-23.1-12.9-31.1-3.8-11.7-4.8-16.6-4.8-24.2 0-5.2 1.1-13.5 2.4-18.4 1.3-4.9 2.8-8.3 3.3-7.6zm364.9 45.7 4.6 10.2c2.4 5.6 4.7 12.4 5 15.2.4 3.4-.7 8.9-3.2 16.5-2.1 6.3-5 14.8-6.5 18.8s-3.2 7.3-3.9 7.3c-.7 0-1.9-1.4-2.6-3.2-.7-1.7-1.2-8.5-1.2-14.9 0-6.5.8-17.2 1.9-23.8 1.1-6.7 2.9-15.3 4-19.1zm301.2 3.2c.6 1.7 2.2 8.6 3.6 15.2 1.3 6.7 2.8 18.7 3.2 26.7.7 12.1.4 15.5-1.4 19.7-1.9 4.7-2.2 4.9-3.5 2.5-.8-1.4-4-9.6-7-18.4-3.1-8.7-5.6-18.2-5.6-20.9 0-2.8.6-6.8 1.4-8.9.8-2.1 3-7.3 4.8-11.5 3.2-7.1 3.4-7.4 4.5-4.4z" /></g>
</svg>